<svg xmlns="http://www.w3.org/2000/svg" xmlns:xlink="http://www.w3.org/1999/xlink" width="40" zoomAndPan="magnify" viewBox="0 0 30 30.000001" height="40" preserveAspectRatio="xMidYMid meet" version="1.2"><defs><clipPath id="67d1fbddc5"><path d="M 4.839844 4.722656 L 25.160156 4.722656 L 25.160156 24.320312 L 4.839844 24.320312 Z M 4.839844 4.722656 "/></clipPath></defs><g id="e8c004271a"><g clip-rule="nonzero" clip-path="url(#67d1fbddc5)"><path style=" stroke:none;fill-rule:nonzero;fill:#000000;fill-opacity:1;" d="M 17.046875 13.527344 C 17.054688 14.367188 17.082031 15.207031 17.082031 16.042969 C 17.082031 16.117188 17.054688 16.183594 17 16.234375 C 16.949219 16.289062 16.886719 16.316406 16.808594 16.316406 C 16.734375 16.316406 16.671875 16.289062 16.617188 16.234375 C 16.566406 16.183594 16.539062 16.117188 16.539062 16.042969 C 16.539062 15.84375 16.539062 15.648438 16.535156 15.449219 C 16.523438 14.59375 16.5 13.742188 16.5 12.886719 C 16.5 12.8125 16.523438 12.75 16.578125 12.695312 C 16.628906 12.640625 16.695312 12.617188 16.769531 12.617188 C 16.84375 12.617188 16.90625 12.640625 16.960938 12.695312 C 17.011719 12.75 17.039062 12.8125 17.039062 12.886719 C 17.039062 13.101562 17.042969 13.316406 17.046875 13.527344 Z M 15.65625 15.960938 C 15.675781 16.03125 15.664062 16.101562 15.628906 16.167969 C 15.59375 16.230469 15.539062 16.273438 15.464844 16.292969 C 15.394531 16.3125 15.324219 16.304688 15.257812 16.269531 C 15.195312 16.230469 15.152344 16.175781 15.132812 16.105469 C 15.035156 15.765625 14.941406 15.433594 14.839844 15.097656 C 14.78125 15.109375 14.71875 15.117188 14.660156 15.121094 C 14.519531 15.132812 14.378906 15.132812 14.238281 15.136719 C 13.988281 15.140625 13.738281 15.136719 13.488281 15.128906 C 13.394531 15.449219 13.304688 15.769531 13.214844 16.09375 C 13.121094 16.433594 12.597656 16.285156 12.691406 15.949219 C 12.824219 15.46875 12.957031 14.984375 13.113281 14.511719 C 13.273438 14.03125 13.457031 13.558594 13.667969 13.097656 C 13.769531 12.875 13.949219 12.636719 14.21875 12.628906 C 14.53125 12.617188 14.636719 12.917969 14.738281 13.152344 C 15.121094 14.0625 15.386719 15.011719 15.65625 15.960938 Z M 14.679688 14.574219 L 14.65625 14.574219 C 14.65625 14.574219 14.65625 14.574219 14.679688 14.574219 C 14.550781 14.175781 14.414062 13.777344 14.253906 13.390625 C 14.234375 13.351562 14.214844 13.304688 14.191406 13.257812 C 14.1875 13.265625 14.183594 13.269531 14.179688 13.277344 C 14.152344 13.328125 14.128906 13.382812 14.105469 13.4375 C 14.066406 13.523438 14.027344 13.613281 13.992188 13.699219 C 13.867188 13.992188 13.757812 14.289062 13.660156 14.585938 C 13.835938 14.585938 14.007812 14.59375 14.183594 14.589844 C 14.324219 14.589844 14.464844 14.589844 14.605469 14.578125 L 14.65625 14.574219 C 14.664062 14.574219 14.671875 14.574219 14.679688 14.574219 Z M 25.15625 14.597656 C 25.15625 14.722656 25.113281 14.835938 25.03125 14.929688 C 24.949219 15.023438 24.84375 15.082031 24.71875 15.097656 C 24.59375 15.117188 24.480469 15.089844 24.375 15.023438 C 24.269531 14.953125 24.199219 14.859375 24.164062 14.738281 C 23.925781 14.742188 23.6875 14.738281 23.453125 14.738281 L 20.871094 14.738281 C 20.863281 15.183594 20.847656 15.628906 20.820312 16.074219 C 20.792969 16.574219 20.753906 17.082031 20.675781 17.578125 L 22.800781 17.578125 C 22.800781 17.492188 22.820312 17.414062 22.859375 17.34375 C 22.898438 17.269531 22.953125 17.210938 23.019531 17.164062 C 23.089844 17.117188 23.164062 17.085938 23.246094 17.078125 C 23.328125 17.066406 23.410156 17.078125 23.488281 17.105469 C 23.566406 17.136719 23.628906 17.183594 23.6875 17.246094 C 23.742188 17.304688 23.777344 17.378906 23.796875 17.457031 C 23.820312 17.539062 23.820312 17.617188 23.800781 17.699219 C 23.78125 17.78125 23.742188 17.851562 23.6875 17.914062 C 23.632812 17.976562 23.566406 18.023438 23.492188 18.050781 C 23.414062 18.082031 23.332031 18.09375 23.25 18.082031 C 23.167969 18.074219 23.09375 18.046875 23.023438 18 C 22.957031 17.953125 22.902344 17.894531 22.863281 17.820312 L 20.632812 17.820312 C 20.621094 17.894531 20.605469 17.96875 20.589844 18.042969 C 20.523438 18.367188 20.398438 18.667969 20.210938 18.9375 C 20.03125 19.179688 19.804688 19.363281 19.535156 19.488281 C 19.105469 19.691406 18.628906 19.789062 18.160156 19.867188 L 18.160156 21.976562 C 18.238281 22.007812 18.304688 22.050781 18.363281 22.113281 C 18.417969 22.175781 18.457031 22.246094 18.476562 22.328125 C 18.496094 22.410156 18.496094 22.488281 18.476562 22.570312 C 18.457031 22.652344 18.421875 22.722656 18.367188 22.785156 C 18.3125 22.847656 18.246094 22.894531 18.167969 22.925781 C 18.089844 22.953125 18.007812 22.964844 17.925781 22.957031 C 17.84375 22.945312 17.769531 22.917969 17.699219 22.871094 C 17.628906 22.824219 17.578125 22.765625 17.539062 22.691406 C 17.5 22.617188 17.476562 22.539062 17.476562 22.457031 C 17.476562 22.375 17.496094 22.292969 17.53125 22.222656 C 17.570312 22.148438 17.625 22.085938 17.691406 22.039062 C 17.761719 21.988281 17.835938 21.960938 17.917969 21.949219 C 17.917969 21.941406 17.917969 21.929688 17.917969 21.921875 L 17.917969 19.902344 C 16.976562 20.027344 16.03125 20.085938 15.082031 20.074219 L 15.082031 23.292969 C 15.164062 23.304688 15.238281 23.335938 15.304688 23.386719 C 15.371094 23.4375 15.421875 23.5 15.457031 23.574219 C 15.496094 23.648438 15.511719 23.726562 15.507812 23.808594 C 15.503906 23.894531 15.484375 23.972656 15.441406 24.042969 C 15.402344 24.117188 15.347656 24.175781 15.277344 24.21875 C 15.207031 24.265625 15.128906 24.289062 15.046875 24.296875 C 14.964844 24.304688 14.882812 24.292969 14.808594 24.261719 C 14.730469 24.230469 14.667969 24.179688 14.613281 24.117188 C 14.558594 24.054688 14.523438 23.980469 14.507812 23.898438 C 14.488281 23.816406 14.492188 23.738281 14.515625 23.65625 C 14.539062 23.578125 14.578125 23.507812 14.632812 23.445312 C 14.691406 23.386719 14.757812 23.339844 14.835938 23.3125 C 14.835938 23.246094 14.835938 23.179688 14.835938 23.109375 L 14.835938 20.074219 C 14.695312 20.074219 14.554688 20.070312 14.414062 20.066406 C 13.832031 20.050781 13.25 20.019531 12.667969 19.964844 C 12.484375 19.949219 12.300781 19.929688 12.117188 19.910156 L 12.117188 21.964844 C 12.195312 21.992188 12.265625 22.03125 12.324219 22.089844 C 12.382812 22.148438 12.425781 22.21875 12.449219 22.296875 C 12.476562 22.375 12.480469 22.457031 12.464844 22.539062 C 12.449219 22.621094 12.417969 22.695312 12.367188 22.761719 C 12.316406 22.824219 12.253906 22.875 12.175781 22.910156 C 12.101562 22.945312 12.023438 22.960938 11.941406 22.953125 C 11.855469 22.949219 11.78125 22.925781 11.707031 22.882812 C 11.636719 22.839844 11.582031 22.785156 11.535156 22.714844 C 11.492188 22.644531 11.46875 22.566406 11.464844 22.484375 C 11.457031 22.398438 11.472656 22.320312 11.503906 22.246094 C 11.539062 22.167969 11.589844 22.105469 11.652344 22.054688 C 11.71875 22 11.792969 21.96875 11.875 21.953125 L 11.875 19.875 C 11.675781 19.847656 11.476562 19.816406 11.28125 19.777344 C 10.652344 19.644531 10.027344 19.316406 9.695312 18.75 C 9.566406 18.515625 9.472656 18.269531 9.417969 18.011719 C 9.402344 17.949219 9.386719 17.882812 9.375 17.820312 L 7.140625 17.820312 C 7.101562 17.894531 7.046875 17.953125 6.980469 18 C 6.910156 18.046875 6.835938 18.074219 6.753906 18.082031 C 6.671875 18.09375 6.589844 18.082031 6.511719 18.050781 C 6.4375 18.023438 6.371094 17.976562 6.316406 17.914062 C 6.261719 17.851562 6.222656 17.78125 6.203125 17.699219 C 6.183594 17.617188 6.1875 17.539062 6.207031 17.457031 C 6.226562 17.378906 6.261719 17.304688 6.316406 17.242188 C 6.375 17.183594 6.4375 17.136719 6.515625 17.105469 C 6.59375 17.078125 6.671875 17.066406 6.757812 17.078125 C 6.839844 17.085938 6.914062 17.117188 6.980469 17.164062 C 7.050781 17.210938 7.105469 17.269531 7.140625 17.34375 C 7.179688 17.414062 7.199219 17.492188 7.203125 17.578125 C 7.390625 17.578125 7.585938 17.578125 7.777344 17.578125 L 9.332031 17.578125 C 9.316406 17.476562 9.300781 17.375 9.285156 17.273438 C 9.175781 16.429688 9.121094 15.585938 9.117188 14.738281 L 5.84375 14.738281 C 5.820312 14.820312 5.78125 14.886719 5.722656 14.949219 C 5.664062 15.007812 5.597656 15.050781 5.519531 15.078125 C 5.441406 15.105469 5.359375 15.109375 5.277344 15.097656 C 5.195312 15.085938 5.121094 15.050781 5.054688 15.003906 C 4.988281 14.953125 4.9375 14.890625 4.902344 14.816406 C 4.867188 14.742188 4.851562 14.660156 4.851562 14.578125 C 4.855469 14.496094 4.878906 14.417969 4.921875 14.347656 C 4.960938 14.273438 5.015625 14.214844 5.085938 14.171875 C 5.15625 14.125 5.234375 14.101562 5.316406 14.09375 C 5.398438 14.085938 5.480469 14.101562 5.554688 14.132812 C 5.632812 14.164062 5.695312 14.210938 5.75 14.277344 C 5.800781 14.339844 5.835938 14.414062 5.855469 14.496094 L 5.875 14.496094 C 6.109375 14.492188 6.347656 14.496094 6.585938 14.496094 L 9.109375 14.496094 C 9.109375 14.191406 9.113281 13.886719 9.117188 13.582031 C 9.128906 12.976562 9.171875 12.375 9.253906 11.773438 L 7.160156 11.773438 C 7.125 11.847656 7.074219 11.914062 7.007812 11.964844 C 6.941406 12.015625 6.871094 12.046875 6.789062 12.0625 C 6.707031 12.078125 6.625 12.070312 6.546875 12.046875 C 6.46875 12.019531 6.398438 11.980469 6.339844 11.921875 C 6.28125 11.863281 6.238281 11.792969 6.214844 11.714844 C 6.191406 11.632812 6.1875 11.554688 6.199219 11.472656 C 6.214844 11.390625 6.25 11.316406 6.300781 11.25 C 6.351562 11.1875 6.414062 11.136719 6.488281 11.101562 C 6.566406 11.066406 6.644531 11.054688 6.726562 11.058594 C 6.8125 11.0625 6.886719 11.085938 6.957031 11.128906 C 7.03125 11.171875 7.085938 11.226562 7.128906 11.300781 C 7.175781 11.371094 7.199219 11.445312 7.203125 11.53125 C 7.394531 11.53125 7.585938 11.53125 7.78125 11.53125 L 9.289062 11.53125 C 9.371094 11.054688 9.515625 10.582031 9.816406 10.199219 C 10.164062 9.753906 10.691406 9.554688 11.214844 9.40625 C 11.429688 9.34375 11.652344 9.289062 11.875 9.242188 L 11.875 7.089844 C 11.792969 7.074219 11.71875 7.039062 11.65625 6.988281 C 11.589844 6.9375 11.539062 6.871094 11.507812 6.796875 C 11.472656 6.71875 11.460938 6.640625 11.464844 6.558594 C 11.472656 6.476562 11.496094 6.398438 11.539062 6.328125 C 11.585938 6.257812 11.640625 6.199219 11.710938 6.160156 C 11.785156 6.117188 11.859375 6.09375 11.945312 6.089844 C 12.027344 6.085938 12.105469 6.101562 12.179688 6.132812 C 12.257812 6.167969 12.320312 6.21875 12.371094 6.285156 C 12.421875 6.351562 12.453125 6.421875 12.46875 6.503906 C 12.480469 6.585938 12.476562 6.667969 12.453125 6.746094 C 12.425781 6.824219 12.382812 6.894531 12.324219 6.953125 C 12.265625 7.011719 12.199219 7.050781 12.117188 7.078125 C 12.117188 7.140625 12.117188 7.203125 12.117188 7.265625 L 12.117188 9.195312 C 12.453125 9.132812 12.792969 9.085938 13.132812 9.058594 C 13.703125 9.011719 14.273438 8.984375 14.839844 8.976562 L 14.839844 5.726562 C 14.761719 5.699219 14.695312 5.65625 14.636719 5.59375 C 14.578125 5.535156 14.539062 5.464844 14.519531 5.382812 C 14.496094 5.304688 14.492188 5.222656 14.511719 5.140625 C 14.527344 5.058594 14.5625 4.988281 14.617188 4.925781 C 14.667969 4.859375 14.734375 4.8125 14.8125 4.78125 C 14.886719 4.75 14.96875 4.734375 15.050781 4.742188 C 15.132812 4.75 15.207031 4.777344 15.277344 4.820312 C 15.347656 4.867188 15.402344 4.925781 15.445312 4.996094 C 15.484375 5.070312 15.507812 5.148438 15.511719 5.230469 C 15.511719 5.3125 15.496094 5.390625 15.460938 5.464844 C 15.425781 5.542969 15.375 5.605469 15.308594 5.652344 C 15.242188 5.703125 15.167969 5.734375 15.085938 5.746094 C 15.085938 5.910156 15.085938 6.074219 15.085938 6.234375 L 15.085938 8.972656 C 15.355469 8.972656 15.625 8.976562 15.894531 8.988281 C 16.570312 9.007812 17.246094 9.050781 17.921875 9.132812 L 17.921875 7.09375 C 17.839844 7.082031 17.765625 7.054688 17.699219 7.007812 C 17.628906 6.957031 17.578125 6.898438 17.539062 6.824219 C 17.5 6.75 17.480469 6.671875 17.484375 6.589844 C 17.484375 6.503906 17.503906 6.425781 17.542969 6.355469 C 17.582031 6.28125 17.636719 6.222656 17.703125 6.175781 C 17.773438 6.128906 17.847656 6.097656 17.929688 6.089844 C 18.011719 6.082031 18.09375 6.089844 18.167969 6.121094 C 18.246094 6.148438 18.3125 6.195312 18.367188 6.257812 C 18.421875 6.320312 18.460938 6.390625 18.480469 6.472656 C 18.5 6.554688 18.5 6.632812 18.480469 6.714844 C 18.457031 6.796875 18.421875 6.867188 18.367188 6.929688 C 18.3125 6.992188 18.246094 7.035156 18.167969 7.066406 C 18.167969 7.132812 18.167969 7.199219 18.167969 7.269531 L 18.167969 9.164062 C 18.289062 9.183594 18.414062 9.199219 18.535156 9.222656 C 19.253906 9.339844 19.949219 9.617188 20.363281 10.25 C 20.613281 10.628906 20.734375 11.074219 20.796875 11.53125 L 22.804688 11.53125 C 22.8125 11.449219 22.835938 11.371094 22.878906 11.300781 C 22.921875 11.230469 22.980469 11.171875 23.050781 11.128906 C 23.121094 11.089844 23.199219 11.066406 23.28125 11.058594 C 23.363281 11.054688 23.441406 11.070312 23.515625 11.105469 C 23.59375 11.140625 23.65625 11.1875 23.707031 11.253906 C 23.757812 11.320312 23.789062 11.394531 23.804688 11.472656 C 23.820312 11.554688 23.816406 11.636719 23.789062 11.714844 C 23.765625 11.792969 23.726562 11.863281 23.667969 11.921875 C 23.609375 11.980469 23.539062 12.023438 23.460938 12.046875 C 23.382812 12.070312 23.300781 12.078125 23.21875 12.0625 C 23.136719 12.046875 23.066406 12.015625 23 11.964844 C 22.933594 11.914062 22.882812 11.851562 22.851562 11.773438 L 20.824219 11.773438 C 20.84375 12.007812 20.855469 12.242188 20.863281 12.472656 C 20.871094 12.863281 20.878906 13.257812 20.882812 13.652344 C 20.882812 13.933594 20.878906 14.214844 20.878906 14.496094 L 24.152344 14.496094 C 24.179688 14.371094 24.246094 14.269531 24.351562 14.191406 C 24.453125 14.113281 24.570312 14.082031 24.699219 14.097656 C 24.828125 14.109375 24.9375 14.164062 25.023438 14.261719 C 25.109375 14.355469 25.15625 14.46875 25.15625 14.597656 Z M 20.335938 17.054688 C 20.503906 15.535156 20.496094 13.992188 20.453125 12.46875 C 20.449219 12.117188 20.417969 11.765625 20.363281 11.417969 C 20.3125 11.074219 20.195312 10.75 20.011719 10.453125 C 19.824219 10.179688 19.582031 9.980469 19.277344 9.847656 C 18.976562 9.722656 18.664062 9.640625 18.339844 9.597656 C 17.945312 9.539062 17.515625 9.496094 17.105469 9.464844 C 16.214844 9.390625 15.324219 9.367188 14.429688 9.390625 C 13.988281 9.40625 13.542969 9.429688 13.101562 9.46875 C 13.023438 9.476562 12.945312 9.480469 12.867188 9.488281 L 12.710938 9.507812 C 12.5625 9.53125 12.414062 9.554688 12.265625 9.582031 C 11.941406 9.644531 11.617188 9.71875 11.300781 9.804688 C 11.15625 9.847656 11.011719 9.894531 10.867188 9.949219 C 10.8125 9.96875 10.757812 9.988281 10.707031 10.015625 C 10.65625 10.039062 10.605469 10.066406 10.554688 10.09375 C 10.503906 10.121094 10.449219 10.160156 10.394531 10.199219 L 10.363281 10.222656 L 10.308594 10.269531 C 10.261719 10.308594 10.21875 10.351562 10.179688 10.398438 C 10.160156 10.417969 10.144531 10.4375 10.128906 10.453125 L 10.117188 10.472656 L 10.105469 10.484375 C 10.039062 10.578125 9.980469 10.675781 9.933594 10.777344 C 9.917969 10.804688 9.90625 10.832031 9.890625 10.863281 C 9.890625 10.867188 9.871094 10.914062 9.867188 10.925781 C 9.847656 10.980469 9.828125 11.035156 9.808594 11.09375 C 9.617188 11.703125 9.585938 12.324219 9.546875 12.960938 C 9.519531 13.476562 9.515625 13.992188 9.519531 14.507812 C 9.523438 15.125 9.546875 15.742188 9.59375 16.355469 C 9.605469 16.503906 9.617188 16.652344 9.632812 16.800781 C 9.644531 16.878906 9.652344 16.957031 9.660156 17.035156 L 9.671875 17.128906 C 9.671875 17.140625 9.671875 17.15625 9.679688 17.167969 C 9.683594 17.183594 9.679688 17.183594 9.679688 17.183594 C 9.710938 17.425781 9.757812 17.667969 9.8125 17.902344 C 9.859375 18.132812 9.941406 18.351562 10.054688 18.558594 C 10.21875 18.816406 10.4375 19.011719 10.710938 19.148438 C 10.945312 19.269531 11.191406 19.351562 11.453125 19.398438 C 11.546875 19.417969 11.644531 19.433594 11.738281 19.449219 L 11.890625 19.472656 L 11.972656 19.484375 L 12.019531 19.484375 C 13.132812 19.621094 14.253906 19.679688 15.378906 19.664062 C 15.984375 19.65625 16.589844 19.632812 17.191406 19.574219 C 17.332031 19.5625 17.472656 19.546875 17.613281 19.53125 C 17.75 19.515625 17.835938 19.503906 17.988281 19.480469 C 18.230469 19.441406 18.472656 19.394531 18.710938 19.335938 C 18.816406 19.308594 18.925781 19.277344 19.027344 19.246094 C 19.074219 19.230469 19.125 19.214844 19.171875 19.195312 L 19.238281 19.171875 L 19.308594 19.140625 C 19.371094 19.113281 19.429688 19.082031 19.488281 19.046875 C 19.515625 19.03125 19.546875 19.015625 19.570312 18.996094 L 19.613281 18.96875 L 19.628906 18.953125 C 19.679688 18.914062 19.722656 18.875 19.765625 18.828125 C 19.804688 18.789062 19.839844 18.746094 19.871094 18.703125 C 20.054688 18.449219 20.136719 18.183594 20.203125 17.878906 C 20.261719 17.605469 20.304688 17.328125 20.335938 17.054688 Z M 20.335938 17.054688 "/><path style=" stroke:none;fill-rule:nonzero;fill:#000000;fill-opacity:1;" d="M 17.046875 13.527344 C 17.054688 14.367188 17.082031 15.207031 17.082031 16.042969 C 17.082031 16.117188 17.054688 16.183594 17 16.234375 C 16.949219 16.289062 16.886719 16.316406 16.808594 16.316406 C 16.734375 16.316406 16.671875 16.289062 16.617188 16.234375 C 16.566406 16.183594 16.539062 16.117188 16.539062 16.042969 C 16.539062 15.84375 16.539062 15.648438 16.535156 15.449219 C 16.523438 14.59375 16.5 13.742188 16.5 12.886719 C 16.5 12.8125 16.523438 12.75 16.578125 12.695312 C 16.628906 12.640625 16.695312 12.617188 16.769531 12.617188 C 16.84375 12.617188 16.90625 12.640625 16.960938 12.695312 C 17.011719 12.75 17.039062 12.8125 17.039062 12.886719 C 17.039062 13.101562 17.042969 13.316406 17.046875 13.527344 Z M 15.65625 15.960938 C 15.675781 16.03125 15.664062 16.101562 15.628906 16.167969 C 15.59375 16.230469 15.539062 16.273438 15.464844 16.292969 C 15.394531 16.3125 15.324219 16.304688 15.257812 16.269531 C 15.195312 16.230469 15.152344 16.175781 15.132812 16.105469 C 15.035156 15.765625 14.941406 15.433594 14.839844 15.097656 C 14.78125 15.109375 14.71875 15.117188 14.660156 15.121094 C 14.519531 15.132812 14.378906 15.132812 14.238281 15.136719 C 13.988281 15.140625 13.738281 15.136719 13.488281 15.128906 C 13.394531 15.449219 13.304688 15.769531 13.214844 16.09375 C 13.121094 16.433594 12.597656 16.285156 12.691406 15.949219 C 12.824219 15.46875 12.957031 14.984375 13.113281 14.511719 C 13.273438 14.03125 13.457031 13.558594 13.667969 13.097656 C 13.769531 12.875 13.949219 12.636719 14.21875 12.628906 C 14.53125 12.617188 14.636719 12.917969 14.738281 13.152344 C 15.121094 14.0625 15.386719 15.011719 15.65625 15.960938 Z M 14.679688 14.574219 L 14.65625 14.574219 C 14.65625 14.574219 14.65625 14.574219 14.679688 14.574219 C 14.550781 14.175781 14.414062 13.777344 14.253906 13.390625 C 14.234375 13.351562 14.214844 13.304688 14.191406 13.257812 C 14.1875 13.265625 14.183594 13.269531 14.179688 13.277344 C 14.152344 13.328125 14.128906 13.382812 14.105469 13.4375 C 14.066406 13.523438 14.027344 13.613281 13.992188 13.699219 C 13.867188 13.992188 13.757812 14.289062 13.660156 14.585938 C 13.835938 14.585938 14.007812 14.59375 14.183594 14.589844 C 14.324219 14.589844 14.464844 14.589844 14.605469 14.578125 L 14.65625 14.574219 C 14.664062 14.574219 14.671875 14.574219 14.679688 14.574219 Z M 25.15625 14.597656 C 25.15625 14.722656 25.113281 14.835938 25.03125 14.929688 C 24.949219 15.023438 24.84375 15.082031 24.71875 15.097656 C 24.59375 15.117188 24.480469 15.089844 24.375 15.023438 C 24.269531 14.953125 24.199219 14.859375 24.164062 14.738281 C 23.925781 14.742188 23.6875 14.738281 23.453125 14.738281 L 20.871094 14.738281 C 20.863281 15.183594 20.847656 15.628906 20.820312 16.074219 C 20.792969 16.574219 20.753906 17.082031 20.675781 17.578125 L 22.800781 17.578125 C 22.800781 17.492188 22.820312 17.414062 22.859375 17.34375 C 22.898438 17.269531 22.953125 17.210938 23.019531 17.164062 C 23.089844 17.117188 23.164062 17.085938 23.246094 17.078125 C 23.328125 17.066406 23.410156 17.078125 23.488281 17.105469 C 23.566406 17.136719 23.628906 17.183594 23.6875 17.246094 C 23.742188 17.304688 23.777344 17.378906 23.796875 17.457031 C 23.820312 17.539062 23.820312 17.617188 23.800781 17.699219 C 23.78125 17.78125 23.742188 17.851562 23.6875 17.914062 C 23.632812 17.976562 23.566406 18.023438 23.492188 18.050781 C 23.414062 18.082031 23.332031 18.09375 23.25 18.082031 C 23.167969 18.074219 23.09375 18.046875 23.023438 18 C 22.957031 17.953125 22.902344 17.894531 22.863281 17.820312 L 20.632812 17.820312 C 20.621094 17.894531 20.605469 17.96875 20.589844 18.042969 C 20.523438 18.367188 20.398438 18.667969 20.210938 18.9375 C 20.03125 19.179688 19.804688 19.363281 19.535156 19.488281 C 19.105469 19.691406 18.628906 19.789062 18.160156 19.867188 L 18.160156 21.976562 C 18.238281 22.007812 18.304688 22.050781 18.363281 22.113281 C 18.417969 22.175781 18.457031 22.246094 18.476562 22.328125 C 18.496094 22.410156 18.496094 22.488281 18.476562 22.570312 C 18.457031 22.652344 18.421875 22.722656 18.367188 22.785156 C 18.3125 22.847656 18.246094 22.894531 18.167969 22.925781 C 18.089844 22.953125 18.007812 22.964844 17.925781 22.957031 C 17.84375 22.945312 17.769531 22.917969 17.699219 22.871094 C 17.628906 22.824219 17.578125 22.765625 17.539062 22.691406 C 17.5 22.617188 17.476562 22.539062 17.476562 22.457031 C 17.476562 22.375 17.496094 22.292969 17.53125 22.222656 C 17.570312 22.148438 17.625 22.085938 17.691406 22.039062 C 17.761719 21.988281 17.835938 21.960938 17.917969 21.949219 C 17.917969 21.941406 17.917969 21.929688 17.917969 21.921875 L 17.917969 19.902344 C 16.976562 20.027344 16.03125 20.085938 15.082031 20.074219 L 15.082031 23.292969 C 15.164062 23.304688 15.238281 23.335938 15.304688 23.386719 C 15.371094 23.4375 15.421875 23.5 15.457031 23.574219 C 15.496094 23.648438 15.511719 23.726562 15.507812 23.808594 C 15.503906 23.894531 15.484375 23.972656 15.441406 24.042969 C 15.402344 24.117188 15.347656 24.175781 15.277344 24.21875 C 15.207031 24.265625 15.128906 24.289062 15.046875 24.296875 C 14.964844 24.304688 14.882812 24.292969 14.808594 24.261719 C 14.730469 24.230469 14.667969 24.179688 14.613281 24.117188 C 14.558594 24.054688 14.523438 23.980469 14.507812 23.898438 C 14.488281 23.816406 14.492188 23.738281 14.515625 23.65625 C 14.539062 23.578125 14.578125 23.507812 14.632812 23.445312 C 14.691406 23.386719 14.757812 23.339844 14.835938 23.3125 C 14.835938 23.246094 14.835938 23.179688 14.835938 23.109375 L 14.835938 20.074219 C 14.695312 20.074219 14.554688 20.070312 14.414062 20.066406 C 13.832031 20.050781 13.25 20.019531 12.667969 19.964844 C 12.484375 19.949219 12.300781 19.929688 12.117188 19.910156 L 12.117188 21.964844 C 12.195312 21.992188 12.265625 22.03125 12.324219 22.089844 C 12.382812 22.148438 12.425781 22.21875 12.449219 22.296875 C 12.476562 22.375 12.480469 22.457031 12.464844 22.539062 C 12.449219 22.621094 12.417969 22.695312 12.367188 22.761719 C 12.316406 22.824219 12.253906 22.875 12.175781 22.910156 C 12.101562 22.945312 12.023438 22.960938 11.941406 22.953125 C 11.855469 22.949219 11.78125 22.925781 11.707031 22.882812 C 11.636719 22.839844 11.582031 22.785156 11.535156 22.714844 C 11.492188 22.644531 11.46875 22.566406 11.464844 22.484375 C 11.457031 22.398438 11.472656 22.320312 11.503906 22.246094 C 11.539062 22.167969 11.589844 22.105469 11.652344 22.054688 C 11.71875 22 11.792969 21.96875 11.875 21.953125 L 11.875 19.875 C 11.675781 19.847656 11.476562 19.816406 11.28125 19.777344 C 10.652344 19.644531 10.027344 19.316406 9.695312 18.75 C 9.566406 18.515625 9.472656 18.269531 9.417969 18.011719 C 9.402344 17.949219 9.386719 17.882812 9.375 17.820312 L 7.140625 17.820312 C 7.101562 17.894531 7.046875 17.953125 6.980469 18 C 6.910156 18.046875 6.835938 18.074219 6.753906 18.082031 C 6.671875 18.09375 6.589844 18.082031 6.511719 18.050781 C 6.4375 18.023438 6.371094 17.976562 6.316406 17.914062 C 6.261719 17.851562 6.222656 17.78125 6.203125 17.699219 C 6.183594 17.617188 6.1875 17.539062 6.207031 17.457031 C 6.226562 17.378906 6.261719 17.304688 6.316406 17.242188 C 6.375 17.183594 6.4375 17.136719 6.515625 17.105469 C 6.59375 17.078125 6.671875 17.066406 6.757812 17.078125 C 6.839844 17.085938 6.914062 17.117188 6.980469 17.164062 C 7.050781 17.210938 7.105469 17.269531 7.140625 17.34375 C 7.179688 17.414062 7.199219 17.492188 7.203125 17.578125 C 7.390625 17.578125 7.585938 17.578125 7.777344 17.578125 L 9.332031 17.578125 C 9.316406 17.476562 9.300781 17.375 9.285156 17.273438 C 9.175781 16.429688 9.121094 15.585938 9.117188 14.738281 L 5.84375 14.738281 C 5.820312 14.820312 5.78125 14.886719 5.722656 14.949219 C 5.664062 15.007812 5.597656 15.050781 5.519531 15.078125 C 5.441406 15.105469 5.359375 15.109375 5.277344 15.097656 C 5.195312 15.085938 5.121094 15.050781 5.054688 15.003906 C 4.988281 14.953125 4.9375 14.890625 4.902344 14.816406 C 4.867188 14.742188 4.851562 14.660156 4.851562 14.578125 C 4.855469 14.496094 4.878906 14.417969 4.921875 14.347656 C 4.960938 14.273438 5.015625 14.214844 5.085938 14.171875 C 5.15625 14.125 5.234375 14.101562 5.316406 14.09375 C 5.398438 14.085938 5.480469 14.101562 5.554688 14.132812 C 5.632812 14.164062 5.695312 14.210938 5.75 14.277344 C 5.800781 14.339844 5.835938 14.414062 5.855469 14.496094 L 5.875 14.496094 C 6.109375 14.492188 6.347656 14.496094 6.585938 14.496094 L 9.109375 14.496094 C 9.109375 14.191406 9.113281 13.886719 9.117188 13.582031 C 9.128906 12.976562 9.171875 12.375 9.253906 11.773438 L 7.160156 11.773438 C 7.125 11.847656 7.074219 11.914062 7.007812 11.964844 C 6.941406 12.015625 6.871094 12.046875 6.789062 12.0625 C 6.707031 12.078125 6.625 12.070312 6.546875 12.046875 C 6.46875 12.019531 6.398438 11.980469 6.339844 11.921875 C 6.28125 11.863281 6.238281 11.792969 6.214844 11.714844 C 6.191406 11.632812 6.1875 11.554688 6.199219 11.472656 C 6.214844 11.390625 6.25 11.316406 6.300781 11.25 C 6.351562 11.1875 6.414062 11.136719 6.488281 11.101562 C 6.566406 11.066406 6.644531 11.054688 6.726562 11.058594 C 6.8125 11.0625 6.886719 11.085938 6.957031 11.128906 C 7.03125 11.171875 7.085938 11.226562 7.128906 11.300781 C 7.175781 11.371094 7.199219 11.445312 7.203125 11.53125 C 7.394531 11.53125 7.585938 11.53125 7.78125 11.53125 L 9.289062 11.53125 C 9.371094 11.054688 9.515625 10.582031 9.816406 10.199219 C 10.164062 9.753906 10.691406 9.554688 11.214844 9.40625 C 11.429688 9.34375 11.652344 9.289062 11.875 9.242188 L 11.875 7.089844 C 11.792969 7.074219 11.71875 7.039062 11.65625 6.988281 C 11.589844 6.9375 11.539062 6.871094 11.507812 6.796875 C 11.472656 6.71875 11.460938 6.640625 11.464844 6.558594 C 11.472656 6.476562 11.496094 6.398438 11.539062 6.328125 C 11.585938 6.257812 11.640625 6.199219 11.710938 6.160156 C 11.785156 6.117188 11.859375 6.09375 11.945312 6.089844 C 12.027344 6.085938 12.105469 6.101562 12.179688 6.132812 C 12.257812 6.167969 12.320312 6.21875 12.371094 6.285156 C 12.421875 6.351562 12.453125 6.421875 12.46875 6.503906 C 12.480469 6.585938 12.476562 6.667969 12.453125 6.746094 C 12.425781 6.824219 12.382812 6.894531 12.324219 6.953125 C 12.265625 7.011719 12.199219 7.050781 12.117188 7.078125 C 12.117188 7.140625 12.117188 7.203125 12.117188 7.265625 L 12.117188 9.195312 C 12.453125 9.132812 12.792969 9.085938 13.132812 9.058594 C 13.703125 9.011719 14.273438 8.984375 14.839844 8.976562 L 14.839844 5.726562 C 14.761719 5.699219 14.695312 5.65625 14.636719 5.59375 C 14.578125 5.535156 14.539062 5.464844 14.519531 5.382812 C 14.496094 5.304688 14.492188 5.222656 14.511719 5.140625 C 14.527344 5.058594 14.5625 4.988281 14.617188 4.925781 C 14.667969 4.859375 14.734375 4.8125 14.8125 4.78125 C 14.886719 4.75 14.96875 4.734375 15.050781 4.742188 C 15.132812 4.75 15.207031 4.777344 15.277344 4.820312 C 15.347656 4.867188 15.402344 4.925781 15.445312 4.996094 C 15.484375 5.070312 15.507812 5.148438 15.511719 5.230469 C 15.511719 5.3125 15.496094 5.390625 15.460938 5.464844 C 15.425781 5.542969 15.375 5.605469 15.308594 5.652344 C 15.242188 5.703125 15.167969 5.734375 15.085938 5.746094 C 15.085938 5.910156 15.085938 6.074219 15.085938 6.234375 L 15.085938 8.972656 C 15.355469 8.972656 15.625 8.976562 15.894531 8.988281 C 16.570312 9.007812 17.246094 9.050781 17.921875 9.132812 L 17.921875 7.09375 C 17.839844 7.082031 17.765625 7.054688 17.699219 7.007812 C 17.628906 6.957031 17.578125 6.898438 17.539062 6.824219 C 17.5 6.75 17.480469 6.671875 17.484375 6.589844 C 17.484375 6.503906 17.503906 6.425781 17.542969 6.355469 C 17.582031 6.28125 17.636719 6.222656 17.703125 6.175781 C 17.773438 6.128906 17.847656 6.097656 17.929688 6.089844 C 18.011719 6.082031 18.09375 6.089844 18.167969 6.121094 C 18.246094 6.148438 18.3125 6.195312 18.367188 6.257812 C 18.421875 6.320312 18.460938 6.390625 18.480469 6.472656 C 18.5 6.554688 18.5 6.632812 18.480469 6.714844 C 18.457031 6.796875 18.421875 6.867188 18.367188 6.929688 C 18.3125 6.992188 18.246094 7.035156 18.167969 7.066406 C 18.167969 7.132812 18.167969 7.199219 18.167969 7.269531 L 18.167969 9.164062 C 18.289062 9.183594 18.414062 9.199219 18.535156 9.222656 C 19.253906 9.339844 19.949219 9.617188 20.363281 10.25 C 20.613281 10.628906 20.734375 11.074219 20.796875 11.53125 L 22.804688 11.53125 C 22.8125 11.449219 22.835938 11.371094 22.878906 11.300781 C 22.921875 11.230469 22.980469 11.171875 23.050781 11.128906 C 23.121094 11.089844 23.199219 11.066406 23.28125 11.058594 C 23.363281 11.054688 23.441406 11.070312 23.515625 11.105469 C 23.59375 11.140625 23.65625 11.1875 23.707031 11.253906 C 23.757812 11.320312 23.789062 11.394531 23.804688 11.472656 C 23.820312 11.554688 23.816406 11.636719 23.789062 11.714844 C 23.765625 11.792969 23.726562 11.863281 23.667969 11.921875 C 23.609375 11.980469 23.539062 12.023438 23.460938 12.046875 C 23.382812 12.070312 23.300781 12.078125 23.21875 12.0625 C 23.136719 12.046875 23.066406 12.015625 23 11.964844 C 22.933594 11.914062 22.882812 11.851562 22.851562 11.773438 L 20.824219 11.773438 C 20.84375 12.007812 20.855469 12.242188 20.863281 12.472656 C 20.871094 12.863281 20.878906 13.257812 20.882812 13.652344 C 20.882812 13.933594 20.878906 14.214844 20.878906 14.496094 L 24.152344 14.496094 C 24.179688 14.371094 24.246094 14.269531 24.351562 14.191406 C 24.453125 14.113281 24.570312 14.082031 24.699219 14.097656 C 24.828125 14.109375 24.9375 14.164062 25.023438 14.261719 C 25.109375 14.355469 25.15625 14.46875 25.15625 14.597656 Z M 20.335938 17.054688 C 20.503906 15.535156 20.496094 13.992188 20.453125 12.46875 C 20.449219 12.117188 20.417969 11.765625 20.363281 11.417969 C 20.3125 11.074219 20.195312 10.75 20.011719 10.453125 C 19.824219 10.179688 19.582031 9.980469 19.277344 9.847656 C 18.976562 9.722656 18.664062 9.640625 18.339844 9.597656 C 17.945312 9.539062 17.515625 9.496094 17.105469 9.464844 C 16.214844 9.390625 15.324219 9.367188 14.429688 9.390625 C 13.988281 9.40625 13.542969 9.429688 13.101562 9.46875 C 13.023438 9.476562 12.945312 9.480469 12.867188 9.488281 L 12.710938 9.507812 C 12.5625 9.53125 12.414062 9.554688 12.265625 9.582031 C 11.941406 9.644531 11.617188 9.71875 11.300781 9.804688 C 11.15625 9.847656 11.011719 9.894531 10.867188 9.949219 C 10.8125 9.96875 10.757812 9.988281 10.707031 10.015625 C 10.65625 10.039062 10.605469 10.066406 10.554688 10.09375 C 10.503906 10.121094 10.449219 10.160156 10.394531 10.199219 L 10.363281 10.222656 L 10.308594 10.269531 C 10.261719 10.308594 10.21875 10.351562 10.179688 10.398438 C 10.160156 10.417969 10.144531 10.4375 10.128906 10.453125 L 10.117188 10.472656 L 10.105469 10.484375 C 10.039062 10.578125 9.980469 10.675781 9.933594 10.777344 C 9.917969 10.804688 9.90625 10.832031 9.890625 10.863281 C 9.890625 10.867188 9.871094 10.914062 9.867188 10.925781 C 9.847656 10.980469 9.828125 11.035156 9.808594 11.09375 C 9.617188 11.703125 9.585938 12.324219 9.546875 12.960938 C 9.519531 13.476562 9.515625 13.992188 9.519531 14.507812 C 9.523438 15.125 9.546875 15.742188 9.59375 16.355469 C 9.605469 16.503906 9.617188 16.652344 9.632812 16.800781 C 9.644531 16.878906 9.652344 16.957031 9.660156 17.035156 L 9.671875 17.128906 C 9.671875 17.140625 9.671875 17.15625 9.679688 17.167969 C 9.683594 17.183594 9.679688 17.183594 9.679688 17.183594 C 9.710938 17.425781 9.757812 17.667969 9.8125 17.902344 C 9.859375 18.132812 9.941406 18.351562 10.054688 18.558594 C 10.21875 18.816406 10.4375 19.011719 10.710938 19.148438 C 10.945312 19.269531 11.191406 19.351562 11.453125 19.398438 C 11.546875 19.417969 11.644531 19.433594 11.738281 19.449219 L 11.890625 19.472656 L 11.972656 19.484375 L 12.019531 19.484375 C 13.132812 19.621094 14.253906 19.679688 15.378906 19.664062 C 15.984375 19.65625 16.589844 19.632812 17.191406 19.574219 C 17.332031 19.5625 17.472656 19.546875 17.613281 19.53125 C 17.75 19.515625 17.835938 19.503906 17.988281 19.480469 C 18.230469 19.441406 18.472656 19.394531 18.710938 19.335938 C 18.816406 19.308594 18.925781 19.277344 19.027344 19.246094 C 19.074219 19.230469 19.125 19.214844 19.171875 19.195312 L 19.238281 19.171875 L 19.308594 19.140625 C 19.371094 19.113281 19.429688 19.082031 19.488281 19.046875 C 19.515625 19.03125 19.546875 19.015625 19.570312 18.996094 L 19.613281 18.96875 L 19.628906 18.953125 C 19.679688 18.914062 19.722656 18.875 19.765625 18.828125 C 19.804688 18.789062 19.839844 18.746094 19.871094 18.703125 C 20.054688 18.449219 20.136719 18.183594 20.203125 17.878906 C 20.261719 17.605469 20.304688 17.328125 20.335938 17.054688 Z M 20.335938 17.054688 "/></g></g></svg>