<svg xmlns="http://www.w3.org/2000/svg" xmlns:xlink="http://www.w3.org/1999/xlink" width="40" zoomAndPan="magnify" viewBox="0 0 30 30.000001" height="40" preserveAspectRatio="xMidYMid meet" version="1.2"><defs><clipPath id="b09ca44cfd"><path d="M 6.289062 5.804688 L 23.710938 5.804688 L 23.710938 23.226562 L 6.289062 23.226562 Z M 6.289062 5.804688 "/></clipPath></defs><g id="c209fe1b25"><g clip-rule="nonzero" clip-path="url(#b09ca44cfd)"><path style=" stroke:none;fill-rule:nonzero;fill:#f03c2e;fill-opacity:1;" d="M 23.382812 13.742188 L 15.777344 6.136719 C 15.671875 6.03125 15.550781 5.949219 15.410156 5.890625 C 15.273438 5.835938 15.132812 5.804688 14.984375 5.804688 C 14.832031 5.804688 14.691406 5.835938 14.554688 5.890625 C 14.414062 5.949219 14.292969 6.03125 14.191406 6.136719 L 12.609375 7.714844 L 14.613281 9.71875 C 15.078125 9.554688 15.613281 9.664062 15.984375 10.035156 C 16.164062 10.21875 16.285156 10.433594 16.339844 10.679688 C 16.398438 10.929688 16.382812 11.175781 16.300781 11.414062 L 18.230469 13.347656 C 18.699219 13.183594 19.238281 13.289062 19.609375 13.664062 C 19.734375 13.789062 19.832031 13.933594 19.898438 14.097656 C 19.96875 14.261719 20.003906 14.429688 20.003906 14.605469 C 20.003906 14.785156 19.96875 14.953125 19.902344 15.117188 C 19.832031 15.28125 19.734375 15.425781 19.609375 15.550781 C 19.484375 15.675781 19.339844 15.773438 19.175781 15.839844 C 19.015625 15.910156 18.84375 15.941406 18.667969 15.941406 C 18.488281 15.941406 18.320312 15.910156 18.15625 15.839844 C 17.992188 15.773438 17.847656 15.675781 17.722656 15.550781 C 17.332031 15.160156 17.234375 14.582031 17.429688 14.097656 L 15.632812 12.296875 L 15.632812 17.035156 C 15.761719 17.101562 15.878906 17.1875 15.984375 17.289062 C 16.109375 17.414062 16.207031 17.558594 16.273438 17.722656 C 16.34375 17.886719 16.375 18.054688 16.375 18.234375 C 16.375 18.410156 16.34375 18.582031 16.273438 18.746094 C 16.207031 18.90625 16.109375 19.050781 15.984375 19.175781 C 15.859375 19.300781 15.714844 19.398438 15.550781 19.46875 C 15.386719 19.535156 15.21875 19.570312 15.039062 19.570312 C 14.863281 19.570312 14.695312 19.535156 14.53125 19.46875 C 14.367188 19.398438 14.222656 19.300781 14.097656 19.175781 C 13.972656 19.050781 13.875 18.90625 13.808594 18.746094 C 13.738281 18.582031 13.707031 18.410156 13.707031 18.234375 C 13.707031 18.054688 13.738281 17.886719 13.808594 17.722656 C 13.875 17.558594 13.972656 17.414062 14.097656 17.289062 C 14.226562 17.160156 14.367188 17.0625 14.535156 17 L 14.535156 12.214844 C 14.375 12.148438 14.226562 12.054688 14.097656 11.925781 C 13.90625 11.734375 13.78125 11.503906 13.730469 11.238281 C 13.679688 10.972656 13.703125 10.714844 13.808594 10.464844 L 11.832031 8.488281 L 6.617188 13.699219 C 6.511719 13.804688 6.433594 13.925781 6.375 14.0625 C 6.316406 14.199219 6.289062 14.34375 6.289062 14.492188 C 6.289062 14.640625 6.316406 14.785156 6.375 14.921875 C 6.433594 15.058594 6.511719 15.179688 6.617188 15.285156 L 14.222656 22.890625 C 14.328125 22.996094 14.449219 23.078125 14.589844 23.132812 C 14.726562 23.191406 14.867188 23.21875 15.015625 23.21875 C 15.167969 23.21875 15.308594 23.191406 15.445312 23.132812 C 15.585938 23.078125 15.707031 22.996094 15.808594 22.890625 L 23.382812 15.332031 C 23.484375 15.226562 23.566406 15.105469 23.625 14.96875 C 23.679688 14.832031 23.710938 14.6875 23.710938 14.539062 C 23.710938 14.390625 23.679688 14.246094 23.625 14.109375 C 23.566406 13.972656 23.484375 13.851562 23.382812 13.746094 "/><path style=" stroke:none;fill-rule:nonzero;fill:#f03c2e;fill-opacity:1;" d="M 23.382812 13.742188 L 15.777344 6.136719 C 15.671875 6.03125 15.550781 5.949219 15.410156 5.890625 C 15.273438 5.835938 15.132812 5.804688 14.984375 5.804688 C 14.832031 5.804688 14.691406 5.835938 14.554688 5.890625 C 14.414062 5.949219 14.292969 6.03125 14.191406 6.136719 L 12.609375 7.714844 L 14.613281 9.71875 C 15.078125 9.554688 15.613281 9.664062 15.984375 10.035156 C 16.164062 10.21875 16.285156 10.433594 16.339844 10.679688 C 16.398438 10.929688 16.382812 11.175781 16.300781 11.414062 L 18.230469 13.347656 C 18.699219 13.183594 19.238281 13.289062 19.609375 13.664062 C 19.734375 13.789062 19.832031 13.933594 19.898438 14.097656 C 19.96875 14.261719 20.003906 14.429688 20.003906 14.605469 C 20.003906 14.785156 19.96875 14.953125 19.902344 15.117188 C 19.832031 15.28125 19.734375 15.425781 19.609375 15.550781 C 19.484375 15.675781 19.339844 15.773438 19.175781 15.839844 C 19.015625 15.910156 18.84375 15.941406 18.667969 15.941406 C 18.488281 15.941406 18.320312 15.910156 18.15625 15.839844 C 17.992188 15.773438 17.847656 15.675781 17.722656 15.550781 C 17.332031 15.160156 17.234375 14.582031 17.429688 14.097656 L 15.632812 12.296875 L 15.632812 17.035156 C 15.761719 17.101562 15.878906 17.1875 15.984375 17.289062 C 16.109375 17.414062 16.207031 17.558594 16.273438 17.722656 C 16.34375 17.886719 16.375 18.054688 16.375 18.234375 C 16.375 18.410156 16.34375 18.582031 16.273438 18.746094 C 16.207031 18.90625 16.109375 19.050781 15.984375 19.175781 C 15.859375 19.300781 15.714844 19.398438 15.550781 19.46875 C 15.386719 19.535156 15.21875 19.570312 15.039062 19.570312 C 14.863281 19.570312 14.695312 19.535156 14.53125 19.46875 C 14.367188 19.398438 14.222656 19.300781 14.097656 19.175781 C 13.972656 19.050781 13.875 18.90625 13.808594 18.746094 C 13.738281 18.582031 13.707031 18.410156 13.707031 18.234375 C 13.707031 18.054688 13.738281 17.886719 13.808594 17.722656 C 13.875 17.558594 13.972656 17.414062 14.097656 17.289062 C 14.226562 17.160156 14.367188 17.0625 14.535156 17 L 14.535156 12.214844 C 14.375 12.148438 14.226562 12.054688 14.097656 11.925781 C 13.90625 11.734375 13.78125 11.503906 13.730469 11.238281 C 13.679688 10.972656 13.703125 10.714844 13.808594 10.464844 L 11.832031 8.488281 L 6.617188 13.699219 C 6.511719 13.804688 6.433594 13.925781 6.375 14.0625 C 6.316406 14.199219 6.289062 14.34375 6.289062 14.492188 C 6.289062 14.640625 6.316406 14.785156 6.375 14.921875 C 6.433594 15.058594 6.511719 15.179688 6.617188 15.285156 L 14.222656 22.890625 C 14.328125 22.996094 14.449219 23.078125 14.589844 23.132812 C 14.726562 23.191406 14.867188 23.21875 15.015625 23.21875 C 15.167969 23.21875 15.308594 23.191406 15.445312 23.132812 C 15.585938 23.078125 15.707031 22.996094 15.808594 22.890625 L 23.382812 15.332031 C 23.484375 15.226562 23.566406 15.105469 23.625 14.96875 C 23.679688 14.832031 23.710938 14.6875 23.710938 14.539062 C 23.710938 14.390625 23.679688 14.246094 23.625 14.109375 C 23.566406 13.972656 23.484375 13.851562 23.382812 13.746094 "/></g></g></svg>