<svg xmlns="http://www.w3.org/2000/svg" xmlns:xlink="http://www.w3.org/1999/xlink" width="40" zoomAndPan="magnify" viewBox="0 0 30 30.000001" height="40" preserveAspectRatio="xMidYMid meet" version="1.2"><defs><clipPath id="aae171a486"><path d="M 6.476562 5.410156 L 23.167969 5.410156 L 23.167969 23.554688 L 6.476562 23.554688 Z M 6.476562 5.410156 "/></clipPath></defs><g id="aedc21e552"><g clip-rule="nonzero" clip-path="url(#aae171a486)"><path style=" stroke:none;fill-rule:nonzero;fill:#000000;fill-opacity:1;" d="M 18.644531 18.203125 C 18.949219 18.925781 18.867188 19.675781 18.871094 20.417969 C 18.875 21.160156 18.875 21.898438 18.871094 22.636719 C 18.867188 23.1875 18.429688 23.554688 17.929688 23.445312 C 17.578125 23.367188 17.332031 23.054688 17.332031 22.671875 C 17.328125 21.625 17.324219 20.582031 17.335938 19.535156 C 17.339844 19.011719 17.191406 18.5625 16.84375 18.179688 C 16.621094 17.933594 16.542969 17.652344 16.660156 17.332031 C 16.777344 17.027344 17.011719 16.882812 17.328125 16.824219 C 17.914062 16.714844 18.503906 16.617188 19.066406 16.433594 C 20.363281 16.011719 21.121094 15.066406 21.398438 13.722656 C 21.570312 12.898438 21.648438 12.066406 21.441406 11.234375 C 21.308594 10.699219 21.058594 10.21875 20.6875 9.816406 C 20.414062 9.519531 20.347656 9.207031 20.484375 8.824219 C 20.683594 8.253906 20.703125 7.664062 20.558594 7.039062 C 20.355469 7.109375 20.15625 7.152344 19.976562 7.246094 C 19.527344 7.476562 19.078125 7.710938 18.652344 7.980469 C 18.363281 8.160156 18.089844 8.210938 17.765625 8.125 C 16.191406 7.710938 14.617188 7.710938 13.042969 8.128906 C 12.726562 8.210938 12.449219 8.171875 12.175781 7.980469 C 11.636719 7.609375 11.070312 7.289062 10.441406 7.101562 C 10.386719 7.082031 10.328125 7.070312 10.257812 7.054688 C 10.140625 7.492188 10.132812 7.921875 10.210938 8.351562 C 10.246094 8.542969 10.304688 8.730469 10.363281 8.914062 C 10.453125 9.214844 10.414062 9.488281 10.207031 9.71875 C 9.519531 10.472656 9.214844 11.363281 9.257812 12.382812 C 9.285156 13.089844 9.367188 13.785156 9.628906 14.445312 C 10.046875 15.519531 10.847656 16.171875 11.902344 16.5 C 12.402344 16.652344 12.917969 16.746094 13.429688 16.835938 C 13.953125 16.925781 14.261719 17.25 14.191406 17.730469 C 14.167969 17.886719 14.089844 18.050781 13.988281 18.167969 C 13.625 18.589844 13.46875 19.070312 13.476562 19.628906 C 13.492188 20.640625 13.484375 21.648438 13.480469 22.65625 C 13.480469 23.121094 13.152344 23.460938 12.722656 23.46875 C 12.289062 23.472656 11.957031 23.125 11.953125 22.652344 C 11.945312 22.214844 11.949219 21.773438 11.949219 21.359375 C 11.558594 21.359375 11.179688 21.378906 10.804688 21.355469 C 9.914062 21.292969 9.167969 20.898438 8.5625 20.242188 C 8.289062 19.941406 8.042969 19.617188 7.785156 19.300781 C 7.574219 19.039062 7.355469 18.808594 7.019531 18.691406 C 6.648438 18.5625 6.480469 18.113281 6.605469 17.730469 C 6.738281 17.34375 7.136719 17.128906 7.53125 17.230469 C 8.039062 17.363281 8.4375 17.671875 8.773438 18.066406 C 9.015625 18.351562 9.25 18.648438 9.480469 18.945312 C 10.125 19.78125 10.964844 19.953125 11.929688 19.71875 C 11.945312 19.457031 11.949219 19.203125 11.984375 18.949219 C 12.023438 18.703125 12.09375 18.464844 12.152344 18.214844 C 11.878906 18.128906 11.589844 18.050781 11.308594 17.949219 C 9.253906 17.222656 8.136719 15.714844 7.820312 13.558594 C 7.695312 12.707031 7.652344 11.855469 7.84375 11.007812 C 7.996094 10.328125 8.273438 9.710938 8.675781 9.152344 C 8.746094 9.058594 8.773438 8.972656 8.746094 8.851562 C 8.527344 7.882812 8.605469 6.933594 8.972656 6.011719 C 9.121094 5.628906 9.371094 5.476562 9.773438 5.457031 C 10.722656 5.410156 11.554688 5.78125 12.332031 6.257812 C 12.707031 6.488281 13.039062 6.527344 13.457031 6.445312 C 14.882812 6.15625 16.308594 6.195312 17.730469 6.507812 C 17.894531 6.542969 18.019531 6.527344 18.164062 6.4375 C 18.867188 6 19.601562 5.621094 20.429688 5.488281 C 20.679688 5.445312 20.945312 5.445312 21.199219 5.46875 C 21.503906 5.496094 21.714844 5.683594 21.832031 5.976562 C 22.207031 6.914062 22.289062 7.878906 22.074219 8.871094 C 22.058594 8.945312 22.078125 9.054688 22.121094 9.117188 C 22.875 10.167969 23.167969 11.34375 23.089844 12.625 C 23.039062 13.480469 22.910156 14.316406 22.582031 15.109375 C 21.960938 16.605469 20.835938 17.523438 19.335938 18.003906 C 19.113281 18.078125 18.886719 18.132812 18.644531 18.203125 Z M 18.644531 18.203125 "/><path style=" stroke:none;fill-rule:nonzero;fill:#000000;fill-opacity:1;" d="M 18.644531 18.203125 C 18.949219 18.925781 18.867188 19.675781 18.871094 20.417969 C 18.875 21.160156 18.875 21.898438 18.871094 22.636719 C 18.867188 23.1875 18.429688 23.554688 17.929688 23.445312 C 17.578125 23.367188 17.332031 23.054688 17.332031 22.671875 C 17.328125 21.625 17.324219 20.582031 17.335938 19.535156 C 17.339844 19.011719 17.191406 18.5625 16.84375 18.179688 C 16.621094 17.933594 16.542969 17.652344 16.660156 17.332031 C 16.777344 17.027344 17.011719 16.882812 17.328125 16.824219 C 17.914062 16.714844 18.503906 16.617188 19.066406 16.433594 C 20.363281 16.011719 21.121094 15.066406 21.398438 13.722656 C 21.570312 12.898438 21.648438 12.066406 21.441406 11.234375 C 21.308594 10.699219 21.058594 10.21875 20.6875 9.816406 C 20.414062 9.519531 20.347656 9.207031 20.484375 8.824219 C 20.683594 8.253906 20.703125 7.664062 20.558594 7.039062 C 20.355469 7.109375 20.15625 7.152344 19.976562 7.246094 C 19.527344 7.476562 19.078125 7.710938 18.652344 7.980469 C 18.363281 8.160156 18.089844 8.210938 17.765625 8.125 C 16.191406 7.710938 14.617188 7.710938 13.042969 8.128906 C 12.726562 8.210938 12.449219 8.171875 12.175781 7.980469 C 11.636719 7.609375 11.070312 7.289062 10.441406 7.101562 C 10.386719 7.082031 10.328125 7.070312 10.257812 7.054688 C 10.140625 7.492188 10.132812 7.921875 10.210938 8.351562 C 10.246094 8.542969 10.304688 8.730469 10.363281 8.914062 C 10.453125 9.214844 10.414062 9.488281 10.207031 9.71875 C 9.519531 10.472656 9.214844 11.363281 9.257812 12.382812 C 9.285156 13.089844 9.367188 13.785156 9.628906 14.445312 C 10.046875 15.519531 10.847656 16.171875 11.902344 16.5 C 12.402344 16.652344 12.917969 16.746094 13.429688 16.835938 C 13.953125 16.925781 14.261719 17.25 14.191406 17.730469 C 14.167969 17.886719 14.089844 18.050781 13.988281 18.167969 C 13.625 18.589844 13.46875 19.070312 13.476562 19.628906 C 13.492188 20.640625 13.484375 21.648438 13.480469 22.65625 C 13.480469 23.121094 13.152344 23.460938 12.722656 23.46875 C 12.289062 23.472656 11.957031 23.125 11.953125 22.652344 C 11.945312 22.214844 11.949219 21.773438 11.949219 21.359375 C 11.558594 21.359375 11.179688 21.378906 10.804688 21.355469 C 9.914062 21.292969 9.167969 20.898438 8.5625 20.242188 C 8.289062 19.941406 8.042969 19.617188 7.785156 19.300781 C 7.574219 19.039062 7.355469 18.808594 7.019531 18.691406 C 6.648438 18.5625 6.480469 18.113281 6.605469 17.730469 C 6.738281 17.34375 7.136719 17.128906 7.53125 17.230469 C 8.039062 17.363281 8.4375 17.671875 8.773438 18.066406 C 9.015625 18.351562 9.25 18.648438 9.480469 18.945312 C 10.125 19.78125 10.964844 19.953125 11.929688 19.71875 C 11.945312 19.457031 11.949219 19.203125 11.984375 18.949219 C 12.023438 18.703125 12.09375 18.464844 12.152344 18.214844 C 11.878906 18.128906 11.589844 18.050781 11.308594 17.949219 C 9.253906 17.222656 8.136719 15.714844 7.820312 13.558594 C 7.695312 12.707031 7.652344 11.855469 7.84375 11.007812 C 7.996094 10.328125 8.273438 9.710938 8.675781 9.152344 C 8.746094 9.058594 8.773438 8.972656 8.746094 8.851562 C 8.527344 7.882812 8.605469 6.933594 8.972656 6.011719 C 9.121094 5.628906 9.371094 5.476562 9.773438 5.457031 C 10.722656 5.410156 11.554688 5.78125 12.332031 6.257812 C 12.707031 6.488281 13.039062 6.527344 13.457031 6.445312 C 14.882812 6.15625 16.308594 6.195312 17.730469 6.507812 C 17.894531 6.542969 18.019531 6.527344 18.164062 6.4375 C 18.867188 6 19.601562 5.621094 20.429688 5.488281 C 20.679688 5.445312 20.945312 5.445312 21.199219 5.46875 C 21.503906 5.496094 21.714844 5.683594 21.832031 5.976562 C 22.207031 6.914062 22.289062 7.878906 22.074219 8.871094 C 22.058594 8.945312 22.078125 9.054688 22.121094 9.117188 C 22.875 10.167969 23.167969 11.34375 23.089844 12.625 C 23.039062 13.480469 22.910156 14.316406 22.582031 15.109375 C 21.960938 16.605469 20.835938 17.523438 19.335938 18.003906 C 19.113281 18.078125 18.886719 18.132812 18.644531 18.203125 Z M 18.644531 18.203125 "/></g></g></svg>