<svg xmlns="http://www.w3.org/2000/svg" xmlns:xlink="http://www.w3.org/1999/xlink" width="40" zoomAndPan="magnify" viewBox="0 0 30 30.000001" height="40" preserveAspectRatio="xMidYMid meet" version="1.2"><defs><clipPath id="c0cc59ed02"><path d="M 5.203125 4.71875 L 24.796875 4.71875 L 24.796875 24.3125 L 5.203125 24.3125 Z M 5.203125 4.71875 "/></clipPath></defs><g id="eadded4a36"><g clip-rule="nonzero" clip-path="url(#c0cc59ed02)"><path style=" stroke:none;fill-rule:nonzero;fill:#007acc;fill-opacity:1;" d="M 19.898438 4.71875 L 19.898438 21.558594 L 5.203125 19.367188 L 19.898438 24.3125 L 24.796875 22.273438 L 24.796875 6.753906 Z M 14.753906 7.582031 L 10.253906 12.035156 L 7.542969 9.992188 L 6.425781 10.367188 L 9.183594 13.09375 L 6.425781 15.816406 L 7.542969 16.191406 L 10.253906 14.148438 L 14.753906 18.597656 L 17.449219 17.457031 L 17.449219 8.730469 Z M 14.753906 10.757812 L 14.753906 15.433594 L 11.664062 13.09375 Z M 14.753906 10.757812 "/><path style=" stroke:none;fill-rule:nonzero;fill:#007acc;fill-opacity:1;" d="M 19.898438 4.71875 L 19.898438 21.558594 L 5.203125 19.367188 L 19.898438 24.3125 L 24.796875 22.273438 L 24.796875 6.753906 Z M 14.753906 7.582031 L 10.253906 12.035156 L 7.542969 9.992188 L 6.425781 10.367188 L 9.183594 13.09375 L 6.425781 15.816406 L 7.542969 16.191406 L 10.253906 14.148438 L 14.753906 18.597656 L 17.449219 17.457031 L 17.449219 8.730469 Z M 14.753906 10.757812 L 14.753906 15.433594 L 11.664062 13.09375 Z M 14.753906 10.757812 "/></g></g></svg>