<svg xmlns="http://www.w3.org/2000/svg" xmlns:xlink="http://www.w3.org/1999/xlink" width="40" zoomAndPan="magnify" viewBox="0 0 30 30.000001" height="40" preserveAspectRatio="xMidYMid meet" version="1.2"><defs><clipPath id="71744e58d3"><path d="M 5.164062 4.679688 L 24.761719 4.679688 L 24.761719 24.277344 L 5.164062 24.277344 Z M 5.164062 4.679688 "/></clipPath><clipPath id="45b43cf76c"><path d="M 5.164062 4.679688 L 24.761719 4.679688 L 24.761719 24.277344 L 5.164062 24.277344 Z M 5.164062 4.679688 "/></clipPath></defs><g id="e228f6ae32"><g clip-rule="nonzero" clip-path="url(#71744e58d3)"><path style=" stroke:none;fill-rule:nonzero;fill:#543b79;fill-opacity:1;" d="M 23.128906 4.679688 L 6.796875 4.679688 C 5.898438 4.679688 5.164062 5.410156 5.164062 6.3125 L 5.164062 22.644531 C 5.164062 23.546875 5.898438 24.277344 6.796875 24.277344 L 23.128906 24.277344 C 24.03125 24.277344 24.761719 23.546875 24.761719 22.644531 L 24.761719 6.3125 C 24.761719 5.410156 24.03125 4.679688 23.128906 4.679688 Z M 19.710938 18.441406 L 19.710938 18.445312 C 19.546875 18.835938 19.289062 19.183594 18.957031 19.453125 C 18.613281 19.730469 18.179688 19.957031 17.644531 20.121094 C 17.109375 20.285156 16.476562 20.371094 15.738281 20.371094 L 10.488281 20.371094 L 10.488281 8.9375 L 16.042969 8.9375 C 17.070312 8.9375 17.890625 9.167969 18.507812 9.640625 C 19.128906 10.113281 19.4375 10.820312 19.4375 11.773438 C 19.4375 12.347656 19.296875 12.839844 19.011719 13.25 C 18.734375 13.65625 18.328125 13.972656 17.804688 14.195312 L 17.804688 14.230469 C 18.503906 14.378906 19.042969 14.710938 19.398438 15.222656 C 19.753906 15.738281 19.933594 16.386719 19.933594 17.171875 C 19.933594 17.613281 19.851562 18.03125 19.691406 18.421875 Z M 19.710938 18.441406 "/></g><path style=" stroke:none;fill-rule:nonzero;fill:#543b79;fill-opacity:1;" d="M 17.445312 15.625 C 17.109375 15.320312 16.636719 15.171875 16.03125 15.171875 L 12.5 15.171875 L 12.5 18.738281 L 16.039062 18.738281 C 16.644531 18.738281 17.117188 18.582031 17.453125 18.265625 C 17.789062 17.949219 17.960938 17.5 17.960938 16.925781 C 17.953125 16.363281 17.789062 15.925781 17.453125 15.625 Z M 17.445312 15.625 "/><path style=" stroke:none;fill-rule:nonzero;fill:#543b79;fill-opacity:1;" d="M 16.949219 13.320312 L 16.953125 13.320312 C 17.277344 13.046875 17.433594 12.65625 17.433594 12.144531 C 17.433594 11.566406 17.292969 11.160156 17.003906 10.925781 C 16.714844 10.695312 16.300781 10.574219 15.753906 10.574219 L 12.488281 10.574219 L 12.488281 13.726562 L 15.753906 13.726562 C 16.230469 13.726562 16.636719 13.589844 16.949219 13.320312 Z M 16.949219 13.320312 "/><g clip-rule="nonzero" clip-path="url(#45b43cf76c)"><path style=" stroke:none;fill-rule:nonzero;fill:#543b79;fill-opacity:1;" d="M 23.128906 4.679688 L 6.796875 4.679688 C 5.898438 4.679688 5.164062 5.410156 5.164062 6.3125 L 5.164062 22.644531 C 5.164062 23.546875 5.898438 24.277344 6.796875 24.277344 L 23.128906 24.277344 C 24.03125 24.277344 24.761719 23.546875 24.761719 22.644531 L 24.761719 6.3125 C 24.761719 5.410156 24.03125 4.679688 23.128906 4.679688 Z M 19.710938 18.441406 L 19.710938 18.445312 C 19.546875 18.835938 19.289062 19.183594 18.957031 19.453125 C 18.613281 19.730469 18.179688 19.957031 17.644531 20.121094 C 17.109375 20.285156 16.476562 20.371094 15.738281 20.371094 L 10.488281 20.371094 L 10.488281 8.9375 L 16.042969 8.9375 C 17.070312 8.9375 17.890625 9.167969 18.507812 9.640625 C 19.128906 10.113281 19.4375 10.820312 19.4375 11.773438 C 19.4375 12.347656 19.296875 12.839844 19.011719 13.25 C 18.734375 13.65625 18.328125 13.972656 17.804688 14.195312 L 17.804688 14.230469 C 18.503906 14.378906 19.042969 14.710938 19.398438 15.222656 C 19.753906 15.738281 19.933594 16.386719 19.933594 17.171875 C 19.933594 17.613281 19.851562 18.03125 19.691406 18.421875 Z M 19.710938 18.441406 "/></g><path style=" stroke:none;fill-rule:nonzero;fill:#543b79;fill-opacity:1;" d="M 17.445312 15.625 C 17.109375 15.320312 16.636719 15.171875 16.03125 15.171875 L 12.5 15.171875 L 12.5 18.738281 L 16.039062 18.738281 C 16.644531 18.738281 17.117188 18.582031 17.453125 18.265625 C 17.789062 17.949219 17.960938 17.5 17.960938 16.925781 C 17.953125 16.363281 17.789062 15.925781 17.453125 15.625 Z M 17.445312 15.625 "/><path style=" stroke:none;fill-rule:nonzero;fill:#543b79;fill-opacity:1;" d="M 16.949219 13.320312 L 16.953125 13.320312 C 17.277344 13.046875 17.433594 12.65625 17.433594 12.144531 C 17.433594 11.566406 17.292969 11.160156 17.003906 10.925781 C 16.714844 10.695312 16.300781 10.574219 15.753906 10.574219 L 12.488281 10.574219 L 12.488281 13.726562 L 15.753906 13.726562 C 16.230469 13.726562 16.636719 13.589844 16.949219 13.320312 Z M 16.949219 13.320312 "/></g></svg>