<svg xmlns="http://www.w3.org/2000/svg" xmlns:xlink="http://www.w3.org/1999/xlink" width="40" zoomAndPan="magnify" viewBox="0 0 30 30.000001" height="40" preserveAspectRatio="xMidYMid meet" version="1.2"><defs><clipPath id="52f8e85dda"><path d="M 4.839844 4.355469 L 25.160156 4.355469 L 25.160156 24.675781 L 4.839844 24.675781 Z M 4.839844 4.355469 "/></clipPath></defs><g id="a56b79c3d7"><g clip-rule="nonzero" clip-path="url(#52f8e85dda)"><path style=" stroke:none;fill-rule:evenodd;fill:#eee400;fill-opacity:1;" d="M 20.414062 23.085938 C 18.640625 23.085938 17.496094 22.238281 16.933594 21.132812 L 18.488281 20.234375 C 18.898438 20.902344 19.429688 21.390625 20.371094 21.390625 C 21.164062 21.390625 21.667969 20.996094 21.667969 20.449219 C 21.667969 19.628906 20.574219 19.308594 19.800781 18.976562 C 18.421875 18.390625 17.507812 17.65625 17.507812 16.097656 C 17.507812 14.667969 18.597656 13.574219 20.304688 13.574219 C 21.519531 13.574219 22.390625 14 23.019531 15.101562 L 21.53125 16.058594 C 21.203125 15.472656 20.851562 15.238281 20.304688 15.238281 C 19.746094 15.238281 19.390625 15.59375 19.390625 16.058594 C 19.390625 16.632812 19.746094 16.863281 20.5625 17.21875 C 22.28125 17.953125 23.578125 18.53125 23.578125 20.421875 C 23.578125 22.144531 22.230469 23.085938 20.414062 23.085938 Z M 16.015625 20.207031 C 16.015625 22.183594 14.796875 23.230469 13.105469 23.230469 C 11.578125 23.230469 10.664062 22.644531 10.210938 21.628906 L 10.1875 21.628906 L 11.738281 20.542969 C 12.039062 21.074219 12.308594 21.453125 12.964844 21.453125 C 13.589844 21.453125 13.984375 21.132812 13.984375 20.179688 L 13.984375 13.5 L 16.015625 13.5 Z M 4.839844 24.675781 L 25.160156 24.675781 L 25.160156 4.355469 L 4.839844 4.355469 Z M 4.839844 24.675781 "/><path style=" stroke:none;fill-rule:evenodd;fill:#eee400;fill-opacity:1;" d="M 20.414062 23.085938 C 18.640625 23.085938 17.496094 22.238281 16.933594 21.132812 L 18.488281 20.234375 C 18.898438 20.902344 19.429688 21.390625 20.371094 21.390625 C 21.164062 21.390625 21.667969 20.996094 21.667969 20.449219 C 21.667969 19.628906 20.574219 19.308594 19.800781 18.976562 C 18.421875 18.390625 17.507812 17.65625 17.507812 16.097656 C 17.507812 14.667969 18.597656 13.574219 20.304688 13.574219 C 21.519531 13.574219 22.390625 14 23.019531 15.101562 L 21.53125 16.058594 C 21.203125 15.472656 20.851562 15.238281 20.304688 15.238281 C 19.746094 15.238281 19.390625 15.59375 19.390625 16.058594 C 19.390625 16.632812 19.746094 16.863281 20.5625 17.21875 C 22.28125 17.953125 23.578125 18.53125 23.578125 20.421875 C 23.578125 22.144531 22.230469 23.085938 20.414062 23.085938 Z M 16.015625 20.207031 C 16.015625 22.183594 14.796875 23.230469 13.105469 23.230469 C 11.578125 23.230469 10.664062 22.644531 10.210938 21.628906 L 10.1875 21.628906 L 11.738281 20.542969 C 12.039062 21.074219 12.308594 21.453125 12.964844 21.453125 C 13.589844 21.453125 13.984375 21.132812 13.984375 20.179688 L 13.984375 13.5 L 16.015625 13.5 Z M 4.839844 24.675781 L 25.160156 24.675781 L 25.160156 4.355469 L 4.839844 4.355469 Z M 4.839844 24.675781 "/></g></g></svg>