<svg xmlns="http://www.w3.org/2000/svg" xmlns:xlink="http://www.w3.org/1999/xlink" width="40" zoomAndPan="magnify" viewBox="0 0 30 30.000001" height="40" preserveAspectRatio="xMidYMid meet" version="1.2"><defs><clipPath id="fb5d5773c4"><path d="M 5.117188 4.355469 L 14 4.355469 L 14 10 L 5.117188 10 Z M 5.117188 4.355469 "/></clipPath><clipPath id="df6e724bf9"><path d="M 5.117188 6 L 14 6 L 14 24.675781 L 5.117188 24.675781 Z M 5.117188 6 "/></clipPath><clipPath id="0408ee6b48"><path d="M 12 15 L 21 15 L 21 24.675781 L 12 24.675781 Z M 12 15 "/></clipPath><clipPath id="f574978a3e"><path d="M 20 8 L 24.714844 8 L 24.714844 17 L 20 17 Z M 20 8 "/></clipPath><clipPath id="0523f706f3"><path d="M 16 6 L 24.714844 6 L 24.714844 12 L 16 12 Z M 16 6 "/></clipPath><clipPath id="cdcfd17eb1"><path d="M 5.117188 4.355469 L 14 4.355469 L 14 10 L 5.117188 10 Z M 5.117188 4.355469 "/></clipPath><clipPath id="68f5a888d9"><path d="M 5.117188 6 L 14 6 L 14 24.675781 L 5.117188 24.675781 Z M 5.117188 6 "/></clipPath><clipPath id="7d529fc383"><path d="M 12 15 L 21 15 L 21 24.675781 L 12 24.675781 Z M 12 15 "/></clipPath><clipPath id="51c791ce88"><path d="M 20 8 L 24.714844 8 L 24.714844 17 L 20 17 Z M 20 8 "/></clipPath><clipPath id="9dc753947f"><path d="M 16 6 L 24.714844 6 L 24.714844 12 L 16 12 Z M 16 6 "/></clipPath></defs><g id="766f5a629c"><g clip-rule="nonzero" clip-path="url(#fb5d5773c4)"><path style=" stroke:none;fill-rule:nonzero;fill:#ef0a1b;fill-opacity:1;" d="M 9.183594 9.34375 C 9.136719 9.34375 9.089844 9.332031 9.046875 9.308594 L 9.023438 9.292969 L 5.253906 7.089844 C 5.210938 7.066406 5.179688 7.03125 5.15625 6.992188 C 5.132812 6.949219 5.121094 6.90625 5.121094 6.859375 C 5.121094 6.808594 5.132812 6.765625 5.152344 6.722656 C 5.175781 6.683594 5.210938 6.648438 5.25 6.625 L 8.929688 4.40625 C 9.023438 4.351562 9.113281 4.351562 9.207031 4.40625 L 12.957031 6.671875 C 12.996094 6.695312 13.027344 6.730469 13.050781 6.773438 C 13.074219 6.8125 13.085938 6.859375 13.085938 6.90625 C 13.085938 6.953125 13.074219 6.996094 13.050781 7.039062 C 13.027344 7.078125 12.996094 7.113281 12.953125 7.136719 L 9.320312 9.304688 C 9.277344 9.332031 9.230469 9.34375 9.183594 9.34375 Z M 5.914062 6.851562 L 9.179688 8.761719 L 12.292969 6.902344 L 9.066406 4.953125 Z M 5.914062 6.851562 "/></g><g clip-rule="nonzero" clip-path="url(#df6e724bf9)"><path style=" stroke:none;fill-rule:nonzero;fill:#ef0a1b;fill-opacity:1;" d="M 12.925781 24.675781 C 12.878906 24.675781 12.835938 24.667969 12.796875 24.644531 L 5.257812 20.425781 C 5.164062 20.375 5.121094 20.296875 5.121094 20.1875 L 5.121094 6.855469 C 5.121094 6.753906 5.164062 6.675781 5.253906 6.621094 C 5.34375 6.570312 5.433594 6.570312 5.523438 6.621094 L 9.289062 8.824219 C 9.378906 8.878906 9.425781 8.953125 9.425781 9.058594 L 9.425781 17.792969 L 13.058594 19.929688 C 13.148438 19.980469 13.191406 20.058594 13.191406 20.164062 L 13.191406 24.40625 C 13.191406 24.480469 13.167969 24.546875 13.113281 24.597656 C 13.0625 24.652344 13 24.675781 12.925781 24.675781 Z M 5.65625 20.03125 L 12.65625 23.949219 L 12.65625 20.316406 L 9.023438 18.183594 C 8.933594 18.132812 8.886719 18.054688 8.886719 17.949219 L 8.886719 9.214844 L 5.65625 7.324219 Z M 5.65625 20.03125 "/></g><path style=" stroke:none;fill-rule:nonzero;fill:#ef0a1b;fill-opacity:1;" d="M 9.15625 18.21875 C 9.082031 18.21875 9.019531 18.191406 8.96875 18.140625 C 8.914062 18.085938 8.886719 18.023438 8.886719 17.949219 L 8.886719 9.058594 C 8.886719 8.894531 8.96875 8.804688 9.132812 8.789062 L 12.683594 6.671875 C 12.722656 6.648438 12.765625 6.636719 12.816406 6.632812 C 12.863281 6.632812 12.90625 6.644531 12.949219 6.667969 C 12.992188 6.691406 13.023438 6.726562 13.046875 6.765625 C 13.074219 6.808594 13.085938 6.851562 13.085938 6.902344 L 13.191406 15.679688 C 13.195312 15.785156 13.152344 15.863281 13.0625 15.917969 L 9.292969 18.179688 C 9.25 18.207031 9.207031 18.21875 9.15625 18.21875 Z M 9.425781 9.242188 L 9.425781 17.472656 L 12.65625 15.53125 L 12.554688 7.375 Z M 9.425781 9.242188 "/><g clip-rule="nonzero" clip-path="url(#0408ee6b48)"><path style=" stroke:none;fill-rule:nonzero;fill:#ef0a1b;fill-opacity:1;" d="M 12.925781 24.675781 C 12.851562 24.675781 12.789062 24.652344 12.734375 24.597656 C 12.683594 24.546875 12.65625 24.480469 12.65625 24.40625 L 12.65625 20.164062 C 12.65625 20.058594 12.703125 19.980469 12.792969 19.929688 L 20.464844 15.503906 C 20.503906 15.476562 20.550781 15.464844 20.597656 15.464844 C 20.644531 15.464844 20.691406 15.480469 20.730469 15.503906 C 20.773438 15.527344 20.804688 15.558594 20.828125 15.601562 C 20.851562 15.644531 20.863281 15.6875 20.863281 15.738281 L 20.863281 20.164062 C 20.863281 20.269531 20.816406 20.347656 20.726562 20.398438 L 13.054688 24.644531 C 13.015625 24.667969 12.972656 24.675781 12.925781 24.675781 Z M 13.191406 20.320312 L 13.191406 23.949219 L 20.328125 20.003906 L 20.328125 16.203125 Z M 13.191406 20.320312 "/></g><path style=" stroke:none;fill-rule:nonzero;fill:#ef0a1b;fill-opacity:1;" d="M 12.925781 20.433594 C 12.878906 20.433594 12.832031 20.421875 12.789062 20.394531 L 9.023438 18.183594 C 8.980469 18.160156 8.949219 18.125 8.925781 18.085938 C 8.902344 18.042969 8.890625 18 8.886719 17.949219 C 8.886719 17.902344 8.898438 17.859375 8.921875 17.816406 C 8.945312 17.773438 8.980469 17.742188 9.019531 17.71875 L 12.789062 15.453125 C 12.789062 15.449219 12.792969 15.449219 12.796875 15.449219 L 16.621094 13.339844 C 16.707031 13.289062 16.792969 13.289062 16.878906 13.339844 L 20.726562 15.5 C 20.816406 15.550781 20.863281 15.628906 20.863281 15.734375 C 20.867188 15.839844 20.820312 15.917969 20.730469 15.96875 L 13.058594 20.398438 C 13.015625 20.421875 12.972656 20.433594 12.925781 20.433594 Z M 9.683594 17.945312 L 12.925781 19.851562 L 20.050781 15.738281 L 16.746094 13.882812 L 13.058594 15.917969 Z M 9.683594 17.945312 "/><path style=" stroke:none;fill-rule:nonzero;fill:#ef0a1b;fill-opacity:1;" d="M 20.597656 16.007812 C 20.550781 16.007812 20.507812 15.996094 20.464844 15.972656 L 16.617188 13.8125 C 16.527344 13.757812 16.480469 13.679688 16.480469 13.574219 L 16.492188 9.074219 C 16.492188 9.023438 16.503906 8.980469 16.527344 8.9375 C 16.554688 8.898438 16.585938 8.863281 16.628906 8.839844 C 16.667969 8.816406 16.710938 8.804688 16.761719 8.804688 C 16.808594 8.804688 16.851562 8.816406 16.894531 8.839844 L 20.730469 11.050781 C 20.820312 11.101562 20.863281 11.179688 20.863281 11.285156 L 20.863281 15.738281 C 20.863281 15.8125 20.839844 15.875 20.785156 15.925781 C 20.734375 15.980469 20.671875 16.007812 20.597656 16.007812 Z M 17.015625 13.417969 L 20.328125 15.277344 L 20.328125 11.441406 L 17.027344 9.539062 Z M 17.015625 13.417969 "/><g clip-rule="nonzero" clip-path="url(#f574978a3e)"><path style=" stroke:none;fill-rule:nonzero;fill:#ef0a1b;fill-opacity:1;" d="M 20.597656 16.007812 C 20.523438 16.007812 20.460938 15.980469 20.40625 15.925781 C 20.355469 15.875 20.328125 15.8125 20.328125 15.734375 L 20.328125 11.285156 C 20.328125 11.179688 20.375 11.101562 20.464844 11.050781 L 24.3125 8.839844 C 24.355469 8.816406 24.398438 8.804688 24.445312 8.804688 C 24.496094 8.804688 24.539062 8.816406 24.578125 8.839844 C 24.621094 8.863281 24.652344 8.898438 24.675781 8.941406 C 24.703125 8.980469 24.714844 9.027344 24.714844 9.074219 L 24.714844 13.574219 C 24.714844 13.679688 24.667969 13.757812 24.574219 13.8125 L 20.726562 15.972656 C 20.6875 15.996094 20.644531 16.007812 20.597656 16.007812 Z M 20.863281 11.441406 L 20.863281 15.277344 L 24.175781 13.417969 L 24.175781 9.539062 Z M 20.863281 11.441406 "/></g><g clip-rule="nonzero" clip-path="url(#0523f706f3)"><path style=" stroke:none;fill-rule:nonzero;fill:#ef0a1b;fill-opacity:1;" d="M 20.597656 11.554688 C 20.550781 11.554688 20.503906 11.542969 20.464844 11.519531 L 16.628906 9.308594 C 16.539062 9.257812 16.492188 9.179688 16.492188 9.074219 C 16.492188 8.96875 16.539062 8.890625 16.628906 8.839844 L 20.464844 6.667969 C 20.554688 6.621094 20.640625 6.621094 20.726562 6.667969 L 24.578125 8.839844 C 24.667969 8.890625 24.714844 8.96875 24.714844 9.074219 C 24.714844 9.179688 24.667969 9.257812 24.578125 9.308594 L 20.730469 11.519531 C 20.6875 11.542969 20.644531 11.554688 20.597656 11.554688 Z M 17.304688 9.078125 L 20.597656 10.972656 L 23.902344 9.078125 L 20.597656 7.214844 Z M 17.304688 9.078125 "/></g><g clip-rule="nonzero" clip-path="url(#cdcfd17eb1)"><path style=" stroke:none;fill-rule:nonzero;fill:#ef0a1b;fill-opacity:1;" d="M 9.183594 9.34375 C 9.136719 9.34375 9.089844 9.332031 9.046875 9.308594 L 9.023438 9.292969 L 5.253906 7.089844 C 5.210938 7.066406 5.179688 7.03125 5.15625 6.992188 C 5.132812 6.949219 5.121094 6.90625 5.121094 6.859375 C 5.121094 6.808594 5.132812 6.765625 5.152344 6.722656 C 5.175781 6.683594 5.210938 6.648438 5.25 6.625 L 8.929688 4.40625 C 9.023438 4.351562 9.113281 4.351562 9.207031 4.40625 L 12.957031 6.671875 C 12.996094 6.695312 13.027344 6.730469 13.050781 6.773438 C 13.074219 6.8125 13.085938 6.859375 13.085938 6.90625 C 13.085938 6.953125 13.074219 6.996094 13.050781 7.039062 C 13.027344 7.078125 12.996094 7.113281 12.953125 7.136719 L 9.320312 9.304688 C 9.277344 9.332031 9.230469 9.34375 9.183594 9.34375 Z M 5.914062 6.851562 L 9.179688 8.761719 L 12.292969 6.902344 L 9.066406 4.953125 Z M 5.914062 6.851562 "/></g><g clip-rule="nonzero" clip-path="url(#68f5a888d9)"><path style=" stroke:none;fill-rule:nonzero;fill:#ef0a1b;fill-opacity:1;" d="M 12.925781 24.675781 C 12.878906 24.675781 12.835938 24.667969 12.796875 24.644531 L 5.257812 20.425781 C 5.164062 20.375 5.121094 20.296875 5.121094 20.1875 L 5.121094 6.855469 C 5.121094 6.753906 5.164062 6.675781 5.253906 6.621094 C 5.34375 6.570312 5.433594 6.570312 5.523438 6.621094 L 9.289062 8.824219 C 9.378906 8.878906 9.425781 8.953125 9.425781 9.058594 L 9.425781 17.792969 L 13.058594 19.929688 C 13.148438 19.980469 13.191406 20.058594 13.191406 20.164062 L 13.191406 24.40625 C 13.191406 24.480469 13.167969 24.546875 13.113281 24.597656 C 13.0625 24.652344 13 24.675781 12.925781 24.675781 Z M 5.65625 20.03125 L 12.65625 23.949219 L 12.65625 20.316406 L 9.023438 18.183594 C 8.933594 18.132812 8.886719 18.054688 8.886719 17.949219 L 8.886719 9.214844 L 5.65625 7.324219 Z M 5.65625 20.03125 "/></g><path style=" stroke:none;fill-rule:nonzero;fill:#ef0a1b;fill-opacity:1;" d="M 9.15625 18.21875 C 9.082031 18.21875 9.019531 18.191406 8.96875 18.140625 C 8.914062 18.085938 8.886719 18.023438 8.886719 17.949219 L 8.886719 9.058594 C 8.886719 8.894531 8.96875 8.804688 9.132812 8.789062 L 12.683594 6.671875 C 12.722656 6.648438 12.765625 6.636719 12.816406 6.632812 C 12.863281 6.632812 12.90625 6.644531 12.949219 6.667969 C 12.992188 6.691406 13.023438 6.726562 13.046875 6.765625 C 13.074219 6.808594 13.085938 6.851562 13.085938 6.902344 L 13.191406 15.679688 C 13.195312 15.785156 13.152344 15.863281 13.0625 15.917969 L 9.292969 18.179688 C 9.25 18.207031 9.207031 18.21875 9.15625 18.21875 Z M 9.425781 9.242188 L 9.425781 17.472656 L 12.65625 15.53125 L 12.554688 7.375 Z M 9.425781 9.242188 "/><g clip-rule="nonzero" clip-path="url(#7d529fc383)"><path style=" stroke:none;fill-rule:nonzero;fill:#ef0a1b;fill-opacity:1;" d="M 12.925781 24.675781 C 12.851562 24.675781 12.789062 24.652344 12.734375 24.597656 C 12.683594 24.546875 12.65625 24.480469 12.65625 24.40625 L 12.65625 20.164062 C 12.65625 20.058594 12.703125 19.980469 12.792969 19.929688 L 20.464844 15.503906 C 20.503906 15.476562 20.550781 15.464844 20.597656 15.464844 C 20.644531 15.464844 20.691406 15.480469 20.730469 15.503906 C 20.773438 15.527344 20.804688 15.558594 20.828125 15.601562 C 20.851562 15.644531 20.863281 15.6875 20.863281 15.738281 L 20.863281 20.164062 C 20.863281 20.269531 20.816406 20.347656 20.726562 20.398438 L 13.054688 24.644531 C 13.015625 24.667969 12.972656 24.675781 12.925781 24.675781 Z M 13.191406 20.320312 L 13.191406 23.949219 L 20.328125 20.003906 L 20.328125 16.203125 Z M 13.191406 20.320312 "/></g><path style=" stroke:none;fill-rule:nonzero;fill:#ef0a1b;fill-opacity:1;" d="M 12.925781 20.433594 C 12.878906 20.433594 12.832031 20.421875 12.789062 20.394531 L 9.023438 18.183594 C 8.980469 18.160156 8.949219 18.125 8.925781 18.085938 C 8.902344 18.042969 8.890625 18 8.886719 17.949219 C 8.886719 17.902344 8.898438 17.859375 8.921875 17.816406 C 8.945312 17.773438 8.980469 17.742188 9.019531 17.71875 L 12.789062 15.453125 C 12.789062 15.449219 12.792969 15.449219 12.796875 15.449219 L 16.621094 13.339844 C 16.707031 13.289062 16.792969 13.289062 16.878906 13.339844 L 20.726562 15.5 C 20.816406 15.550781 20.863281 15.628906 20.863281 15.734375 C 20.867188 15.839844 20.820312 15.917969 20.730469 15.96875 L 13.058594 20.398438 C 13.015625 20.421875 12.972656 20.433594 12.925781 20.433594 Z M 9.683594 17.945312 L 12.925781 19.851562 L 20.050781 15.738281 L 16.746094 13.882812 L 13.058594 15.917969 Z M 9.683594 17.945312 "/><path style=" stroke:none;fill-rule:nonzero;fill:#ef0a1b;fill-opacity:1;" d="M 20.597656 16.007812 C 20.550781 16.007812 20.507812 15.996094 20.464844 15.972656 L 16.617188 13.8125 C 16.527344 13.757812 16.480469 13.679688 16.480469 13.574219 L 16.492188 9.074219 C 16.492188 9.023438 16.503906 8.980469 16.527344 8.9375 C 16.554688 8.898438 16.585938 8.863281 16.628906 8.839844 C 16.667969 8.816406 16.710938 8.804688 16.761719 8.804688 C 16.808594 8.804688 16.851562 8.816406 16.894531 8.839844 L 20.730469 11.050781 C 20.820312 11.101562 20.863281 11.179688 20.863281 11.285156 L 20.863281 15.738281 C 20.863281 15.8125 20.839844 15.875 20.785156 15.925781 C 20.734375 15.980469 20.671875 16.007812 20.597656 16.007812 Z M 17.015625 13.417969 L 20.328125 15.277344 L 20.328125 11.441406 L 17.027344 9.539062 Z M 17.015625 13.417969 "/><g clip-rule="nonzero" clip-path="url(#51c791ce88)"><path style=" stroke:none;fill-rule:nonzero;fill:#ef0a1b;fill-opacity:1;" d="M 20.597656 16.007812 C 20.523438 16.007812 20.460938 15.980469 20.40625 15.925781 C 20.355469 15.875 20.328125 15.8125 20.328125 15.734375 L 20.328125 11.285156 C 20.328125 11.179688 20.375 11.101562 20.464844 11.050781 L 24.3125 8.839844 C 24.355469 8.816406 24.398438 8.804688 24.445312 8.804688 C 24.496094 8.804688 24.539062 8.816406 24.578125 8.839844 C 24.621094 8.863281 24.652344 8.898438 24.675781 8.941406 C 24.703125 8.980469 24.714844 9.027344 24.714844 9.074219 L 24.714844 13.574219 C 24.714844 13.679688 24.667969 13.757812 24.574219 13.8125 L 20.726562 15.972656 C 20.6875 15.996094 20.644531 16.007812 20.597656 16.007812 Z M 20.863281 11.441406 L 20.863281 15.277344 L 24.175781 13.417969 L 24.175781 9.539062 Z M 20.863281 11.441406 "/></g><g clip-rule="nonzero" clip-path="url(#9dc753947f)"><path style=" stroke:none;fill-rule:nonzero;fill:#ef0a1b;fill-opacity:1;" d="M 20.597656 11.554688 C 20.550781 11.554688 20.503906 11.542969 20.464844 11.519531 L 16.628906 9.308594 C 16.539062 9.257812 16.492188 9.179688 16.492188 9.074219 C 16.492188 8.96875 16.539062 8.890625 16.628906 8.839844 L 20.464844 6.667969 C 20.554688 6.621094 20.640625 6.621094 20.726562 6.667969 L 24.578125 8.839844 C 24.667969 8.890625 24.714844 8.96875 24.714844 9.074219 C 24.714844 9.179688 24.667969 9.257812 24.578125 9.308594 L 20.730469 11.519531 C 20.6875 11.542969 20.644531 11.554688 20.597656 11.554688 Z M 17.304688 9.078125 L 20.597656 10.972656 L 23.902344 9.078125 L 20.597656 7.214844 Z M 17.304688 9.078125 "/></g></g></svg>