<svg xmlns="http://www.w3.org/2000/svg" xmlns:xlink="http://www.w3.org/1999/xlink" width="40" zoomAndPan="magnify" viewBox="0 0 30 30.000001" height="40" preserveAspectRatio="xMidYMid meet" version="1.2"><defs><clipPath id="bf518ea1b5"><path d="M 1.925781 7.050781 L 28 7.050781 L 28 22 L 1.925781 22 Z M 1.925781 7.050781 "/></clipPath><clipPath id="dafc8e72af"><path d="M 1.925781 7.050781 L 28 7.050781 L 28 22 L 1.925781 22 Z M 1.925781 7.050781 "/></clipPath></defs><g id="cba46ddd4c"><g clip-rule="nonzero" clip-path="url(#bf518ea1b5)"><path style=" stroke:none;fill-rule:evenodd;fill:#00678c;fill-opacity:1;" d="M 1.878906 20.429688 L 2.738281 20.429688 L 2.738281 16.957031 L 4.078125 19.984375 C 4.226562 20.347656 4.445312 20.484375 4.867188 20.484375 C 5.292969 20.484375 5.496094 20.347656 5.652344 19.984375 L 6.988281 16.957031 L 6.988281 20.429688 L 7.851562 20.429688 L 7.851562 16.957031 C 7.851562 16.617188 7.71875 16.457031 7.441406 16.367188 C 6.789062 16.167969 6.351562 16.339844 6.15625 16.792969 L 4.839844 19.789062 L 3.574219 16.792969 C 3.382812 16.339844 2.941406 16.167969 2.28125 16.367188 C 2.007812 16.457031 1.875 16.617188 1.875 16.957031 L 1.875 20.429688 Z M 8.566406 17.601562 L 9.429688 17.601562 L 9.429688 19.511719 C 9.425781 19.621094 9.464844 19.863281 9.933594 19.871094 C 10.179688 19.875 11.796875 19.871094 11.808594 19.871094 L 11.808594 17.589844 L 12.671875 17.589844 L 12.671875 20.710938 C 12.671875 21.480469 11.742188 21.648438 11.308594 21.65625 L 8.585938 21.65625 L 8.585938 21.070312 L 11.3125 21.070312 C 11.867188 21.007812 11.800781 20.726562 11.800781 20.632812 L 11.800781 20.402344 L 9.972656 20.402344 C 9.121094 20.394531 8.574219 20.011719 8.566406 19.574219 Z M 27.117188 15.390625 C 26.589844 15.375 26.179688 15.429688 25.835938 15.578125 C 25.738281 15.621094 25.578125 15.621094 25.566406 15.75 C 25.617188 15.800781 25.625 15.890625 25.671875 15.964844 C 25.75 16.097656 25.890625 16.28125 26.015625 16.375 C 26.152344 16.484375 26.292969 16.589844 26.4375 16.6875 C 26.695312 16.847656 26.984375 16.941406 27.234375 17.105469 C 27.382812 17.199219 27.527344 17.320312 27.671875 17.421875 C 27.746094 17.476562 27.789062 17.5625 27.882812 17.597656 L 27.882812 17.574219 C 27.835938 17.515625 27.824219 17.429688 27.777344 17.359375 C 27.710938 17.292969 27.644531 17.230469 27.578125 17.164062 C 27.386719 16.902344 27.148438 16.671875 26.890625 16.484375 C 26.679688 16.335938 26.21875 16.132812 26.132812 15.882812 L 26.121094 15.871094 C 26.265625 15.855469 26.4375 15.800781 26.574219 15.761719 C 26.800781 15.699219 27.003906 15.714844 27.234375 15.652344 C 27.339844 15.625 27.445312 15.59375 27.554688 15.558594 L 27.554688 15.5 C 27.433594 15.378906 27.347656 15.214844 27.222656 15.101562 C 26.886719 14.804688 26.515625 14.515625 26.132812 14.269531 C 25.929688 14.136719 25.664062 14.046875 25.445312 13.933594 C 25.367188 13.894531 25.234375 13.875 25.1875 13.804688 C 25.070312 13.65625 25.003906 13.460938 24.917969 13.285156 C 24.726562 12.914062 24.542969 12.503906 24.378906 12.113281 C 24.257812 11.851562 24.1875 11.585938 24.039062 11.34375 C 23.359375 10.195312 22.621094 9.503906 21.484375 8.820312 C 21.242188 8.679688 20.949219 8.617188 20.640625 8.542969 L 20.148438 8.515625 C 20.042969 8.46875 19.9375 8.339844 19.84375 8.28125 C 19.46875 8.039062 18.496094 7.511719 18.21875 8.207031 C 18.039062 8.644531 18.484375 9.078125 18.632812 9.300781 C 18.746094 9.453125 18.890625 9.628906 18.96875 9.804688 C 19.015625 9.921875 19.027344 10.042969 19.074219 10.164062 C 19.179688 10.460938 19.28125 10.789062 19.417969 11.066406 C 19.492188 11.207031 19.570312 11.355469 19.664062 11.484375 C 19.714844 11.558594 19.808594 11.59375 19.828125 11.714844 C 19.734375 11.851562 19.730469 12.050781 19.675781 12.222656 C 19.4375 12.984375 19.53125 13.925781 19.867188 14.488281 C 19.972656 14.65625 20.222656 15.027344 20.5625 14.886719 C 20.859375 14.761719 20.792969 14.378906 20.878906 14.042969 C 20.898438 13.960938 20.882812 13.90625 20.925781 13.851562 L 20.925781 13.867188 L 21.195312 14.425781 C 21.398438 14.757812 21.757812 15.101562 22.054688 15.332031 C 22.210938 15.453125 22.335938 15.660156 22.535156 15.734375 L 22.535156 15.714844 L 22.523438 15.714844 C 22.480469 15.652344 22.421875 15.628906 22.371094 15.578125 C 22.25 15.457031 22.117188 15.308594 22.027344 15.175781 C 21.75 14.796875 21.503906 14.378906 21.289062 13.949219 C 21.179688 13.738281 21.089844 13.507812 21.003906 13.300781 C 20.964844 13.21875 20.964844 13.097656 20.898438 13.058594 C 20.796875 13.207031 20.652344 13.332031 20.582031 13.515625 C 20.453125 13.804688 20.441406 14.164062 20.394531 14.535156 C 20.367188 14.542969 20.382812 14.535156 20.367188 14.546875 C 20.15625 14.496094 20.085938 14.269531 20.007812 14.082031 C 19.808594 13.605469 19.773438 12.835938 19.945312 12.28125 C 19.992188 12.140625 20.191406 11.695312 20.113281 11.558594 C 20.070312 11.429688 19.941406 11.359375 19.867188 11.257812 C 19.78125 11.128906 19.691406 10.964844 19.628906 10.824219 C 19.472656 10.445312 19.390625 10.027344 19.222656 9.652344 C 19.140625 9.476562 19.003906 9.292969 18.890625 9.132812 C 18.765625 8.949219 18.625 8.820312 18.527344 8.605469 C 18.496094 8.53125 18.449219 8.410156 18.5 8.328125 C 18.515625 8.273438 18.539062 8.253906 18.59375 8.242188 C 18.679688 8.167969 18.921875 8.261719 19.007812 8.300781 C 19.253906 8.402344 19.457031 8.496094 19.664062 8.636719 C 19.753906 8.707031 19.855469 8.835938 19.972656 8.867188 L 20.113281 8.867188 C 20.324219 8.914062 20.5625 8.882812 20.757812 8.941406 C 21.109375 9.058594 21.425781 9.226562 21.710938 9.40625 C 22.574219 9.96875 23.289062 10.765625 23.769531 11.714844 C 23.847656 11.871094 23.882812 12.011719 23.953125 12.171875 C 24.09375 12.503906 24.265625 12.839844 24.402344 13.164062 C 24.542969 13.484375 24.675781 13.804688 24.871094 14.070312 C 24.972656 14.210938 25.367188 14.285156 25.546875 14.359375 C 25.675781 14.417969 25.882812 14.472656 26 14.546875 C 26.226562 14.691406 26.449219 14.851562 26.660156 15.007812 C 26.765625 15.085938 27.097656 15.257812 27.117188 15.390625 Z M 20.382812 9.527344 C 20.292969 9.527344 20.203125 9.539062 20.113281 9.5625 L 20.113281 9.574219 L 20.125 9.574219 C 20.179688 9.683594 20.273438 9.757812 20.339844 9.851562 L 20.488281 10.175781 L 20.503906 10.164062 C 20.59375 10.09375 20.640625 9.988281 20.640625 9.824219 C 20.601562 9.777344 20.597656 9.730469 20.5625 9.683594 C 20.523438 9.617188 20.4375 9.582031 20.382812 9.527344 Z M 20.382812 9.527344 "/></g><path style=" stroke:none;fill-rule:evenodd;fill:#ce8b2c;fill-opacity:1;" d="M 13.332031 20.429688 L 15.816406 20.429688 C 16.105469 20.429688 16.382812 20.367188 16.605469 20.261719 C 16.984375 20.085938 17.160156 19.847656 17.160156 19.539062 L 17.160156 18.890625 C 17.160156 18.640625 16.957031 18.40625 16.546875 18.242188 C 16.335938 18.164062 16.074219 18.117188 15.816406 18.117188 L 14.773438 18.117188 C 14.421875 18.117188 14.257812 18.007812 14.210938 17.773438 C 14.203125 17.746094 14.203125 17.71875 14.203125 17.691406 L 14.203125 17.292969 C 14.203125 17.273438 14.203125 17.246094 14.210938 17.21875 C 14.257812 17.035156 14.347656 16.988281 14.65625 16.957031 L 17.195312 16.957031 L 17.195312 16.367188 L 14.78125 16.367188 C 14.429688 16.367188 14.246094 16.390625 14.082031 16.441406 C 13.570312 16.605469 13.347656 16.863281 13.347656 17.3125 L 13.347656 17.824219 C 13.347656 18.222656 13.78125 18.5625 14.523438 18.640625 C 14.601562 18.648438 14.6875 18.648438 14.773438 18.648438 L 15.664062 18.648438 C 15.699219 18.648438 15.730469 18.648438 15.757812 18.65625 C 16.027344 18.683594 16.144531 18.730469 16.226562 18.832031 C 16.277344 18.886719 16.292969 18.933594 16.292969 18.992188 L 16.292969 19.503906 C 16.292969 19.566406 16.253906 19.648438 16.171875 19.714844 C 16.09375 19.78125 15.96875 19.828125 15.804688 19.835938 C 15.769531 19.835938 15.75 19.84375 15.71875 19.84375 L 13.332031 19.84375 Z M 22.535156 19.410156 C 22.535156 20.011719 22.980469 20.347656 23.863281 20.414062 C 23.949219 20.421875 24.027344 20.429688 24.113281 20.429688 L 26.359375 20.429688 L 26.359375 19.84375 L 24.09375 19.84375 C 23.59375 19.84375 23.402344 19.714844 23.402344 19.402344 L 23.402344 16.367188 L 22.535156 16.367188 Z M 17.710938 19.4375 L 17.710938 17.347656 C 17.710938 16.8125 18.078125 16.488281 18.800781 16.390625 C 18.878906 16.382812 18.957031 16.375 19.03125 16.375 L 20.667969 16.375 C 20.753906 16.375 20.824219 16.382812 20.910156 16.390625 C 21.632812 16.488281 21.992188 16.8125 21.992188 17.347656 L 21.992188 19.4375 C 21.992188 19.871094 21.84375 20.097656 21.484375 20.253906 L 22.332031 21.035156 L 21.332031 21.035156 L 20.648438 20.402344 L 19.953125 20.441406 L 19.03125 20.441406 C 18.859375 20.441406 18.691406 20.417969 18.527344 20.375 C 17.980469 20.21875 17.710938 19.921875 17.710938 19.4375 Z M 18.640625 19.390625 C 18.640625 19.417969 18.65625 19.445312 18.660156 19.480469 C 18.707031 19.722656 18.929688 19.855469 19.273438 19.855469 L 20.054688 19.855469 L 19.339844 19.195312 L 20.335938 19.195312 L 20.964844 19.773438 C 21.082031 19.707031 21.15625 19.613281 21.183594 19.492188 C 21.1875 19.464844 21.1875 19.429688 21.1875 19.402344 L 21.1875 17.402344 C 21.1875 17.375 21.1875 17.347656 21.183594 17.320312 C 21.136719 17.089844 20.910156 16.960938 20.574219 16.960938 L 19.273438 16.960938 C 18.890625 16.960938 18.640625 17.132812 18.640625 17.402344 Z M 18.640625 19.390625 "/><g clip-rule="nonzero" clip-path="url(#dafc8e72af)"><path style=" stroke:none;fill-rule:evenodd;fill:#00678c;fill-opacity:1;" d="M 1.878906 20.429688 L 2.738281 20.429688 L 2.738281 16.957031 L 4.078125 19.984375 C 4.226562 20.347656 4.445312 20.484375 4.867188 20.484375 C 5.292969 20.484375 5.496094 20.347656 5.652344 19.984375 L 6.988281 16.957031 L 6.988281 20.429688 L 7.851562 20.429688 L 7.851562 16.957031 C 7.851562 16.617188 7.71875 16.457031 7.441406 16.367188 C 6.789062 16.167969 6.351562 16.339844 6.15625 16.792969 L 4.839844 19.789062 L 3.574219 16.792969 C 3.382812 16.339844 2.941406 16.167969 2.28125 16.367188 C 2.007812 16.457031 1.875 16.617188 1.875 16.957031 L 1.875 20.429688 Z M 8.566406 17.601562 L 9.429688 17.601562 L 9.429688 19.511719 C 9.425781 19.621094 9.464844 19.863281 9.933594 19.871094 C 10.179688 19.875 11.796875 19.871094 11.808594 19.871094 L 11.808594 17.589844 L 12.671875 17.589844 L 12.671875 20.710938 C 12.671875 21.480469 11.742188 21.648438 11.308594 21.65625 L 8.585938 21.65625 L 8.585938 21.070312 L 11.3125 21.070312 C 11.867188 21.007812 11.800781 20.726562 11.800781 20.632812 L 11.800781 20.402344 L 9.972656 20.402344 C 9.121094 20.394531 8.574219 20.011719 8.566406 19.574219 Z M 27.117188 15.390625 C 26.589844 15.375 26.179688 15.429688 25.835938 15.578125 C 25.738281 15.621094 25.578125 15.621094 25.566406 15.75 C 25.617188 15.800781 25.625 15.890625 25.671875 15.964844 C 25.75 16.097656 25.890625 16.28125 26.015625 16.375 C 26.152344 16.484375 26.292969 16.589844 26.4375 16.6875 C 26.695312 16.847656 26.984375 16.941406 27.234375 17.105469 C 27.382812 17.199219 27.527344 17.320312 27.671875 17.421875 C 27.746094 17.476562 27.789062 17.5625 27.882812 17.597656 L 27.882812 17.574219 C 27.835938 17.515625 27.824219 17.429688 27.777344 17.359375 C 27.710938 17.292969 27.644531 17.230469 27.578125 17.164062 C 27.386719 16.902344 27.148438 16.671875 26.890625 16.484375 C 26.679688 16.335938 26.21875 16.132812 26.132812 15.882812 L 26.121094 15.871094 C 26.265625 15.855469 26.4375 15.800781 26.574219 15.761719 C 26.800781 15.699219 27.003906 15.714844 27.234375 15.652344 C 27.339844 15.625 27.445312 15.59375 27.554688 15.558594 L 27.554688 15.5 C 27.433594 15.378906 27.347656 15.214844 27.222656 15.101562 C 26.886719 14.804688 26.515625 14.515625 26.132812 14.269531 C 25.929688 14.136719 25.664062 14.046875 25.445312 13.933594 C 25.367188 13.894531 25.234375 13.875 25.1875 13.804688 C 25.070312 13.65625 25.003906 13.460938 24.917969 13.285156 C 24.726562 12.914062 24.542969 12.503906 24.378906 12.113281 C 24.257812 11.851562 24.1875 11.585938 24.039062 11.34375 C 23.359375 10.195312 22.621094 9.503906 21.484375 8.820312 C 21.242188 8.679688 20.949219 8.617188 20.640625 8.542969 L 20.148438 8.515625 C 20.042969 8.46875 19.9375 8.339844 19.84375 8.28125 C 19.46875 8.039062 18.496094 7.511719 18.21875 8.207031 C 18.039062 8.644531 18.484375 9.078125 18.632812 9.300781 C 18.746094 9.453125 18.890625 9.628906 18.96875 9.804688 C 19.015625 9.921875 19.027344 10.042969 19.074219 10.164062 C 19.179688 10.460938 19.28125 10.789062 19.417969 11.066406 C 19.492188 11.207031 19.570312 11.355469 19.664062 11.484375 C 19.714844 11.558594 19.808594 11.59375 19.828125 11.714844 C 19.734375 11.851562 19.730469 12.050781 19.675781 12.222656 C 19.4375 12.984375 19.53125 13.925781 19.867188 14.488281 C 19.972656 14.65625 20.222656 15.027344 20.5625 14.886719 C 20.859375 14.761719 20.792969 14.378906 20.878906 14.042969 C 20.898438 13.960938 20.882812 13.90625 20.925781 13.851562 L 20.925781 13.867188 L 21.195312 14.425781 C 21.398438 14.757812 21.757812 15.101562 22.054688 15.332031 C 22.210938 15.453125 22.335938 15.660156 22.535156 15.734375 L 22.535156 15.714844 L 22.523438 15.714844 C 22.480469 15.652344 22.421875 15.628906 22.371094 15.578125 C 22.25 15.457031 22.117188 15.308594 22.027344 15.175781 C 21.75 14.796875 21.503906 14.378906 21.289062 13.949219 C 21.179688 13.738281 21.089844 13.507812 21.003906 13.300781 C 20.964844 13.21875 20.964844 13.097656 20.898438 13.058594 C 20.796875 13.207031 20.652344 13.332031 20.582031 13.515625 C 20.453125 13.804688 20.441406 14.164062 20.394531 14.535156 C 20.367188 14.542969 20.382812 14.535156 20.367188 14.546875 C 20.15625 14.496094 20.085938 14.269531 20.007812 14.082031 C 19.808594 13.605469 19.773438 12.835938 19.945312 12.28125 C 19.992188 12.140625 20.191406 11.695312 20.113281 11.558594 C 20.070312 11.429688 19.941406 11.359375 19.867188 11.257812 C 19.78125 11.128906 19.691406 10.964844 19.628906 10.824219 C 19.472656 10.445312 19.390625 10.027344 19.222656 9.652344 C 19.140625 9.476562 19.003906 9.292969 18.890625 9.132812 C 18.765625 8.949219 18.625 8.820312 18.527344 8.605469 C 18.496094 8.53125 18.449219 8.410156 18.5 8.328125 C 18.515625 8.273438 18.539062 8.253906 18.59375 8.242188 C 18.679688 8.167969 18.921875 8.261719 19.007812 8.300781 C 19.253906 8.402344 19.457031 8.496094 19.664062 8.636719 C 19.753906 8.707031 19.855469 8.835938 19.972656 8.867188 L 20.113281 8.867188 C 20.324219 8.914062 20.5625 8.882812 20.757812 8.941406 C 21.109375 9.058594 21.425781 9.226562 21.710938 9.40625 C 22.574219 9.96875 23.289062 10.765625 23.769531 11.714844 C 23.847656 11.871094 23.882812 12.011719 23.953125 12.171875 C 24.09375 12.503906 24.265625 12.839844 24.402344 13.164062 C 24.542969 13.484375 24.675781 13.804688 24.871094 14.070312 C 24.972656 14.210938 25.367188 14.285156 25.546875 14.359375 C 25.675781 14.417969 25.882812 14.472656 26 14.546875 C 26.226562 14.691406 26.449219 14.851562 26.660156 15.007812 C 26.765625 15.085938 27.097656 15.257812 27.117188 15.390625 Z M 20.382812 9.527344 C 20.292969 9.527344 20.203125 9.539062 20.113281 9.5625 L 20.113281 9.574219 L 20.125 9.574219 C 20.179688 9.683594 20.273438 9.757812 20.339844 9.851562 L 20.488281 10.175781 L 20.503906 10.164062 C 20.59375 10.09375 20.640625 9.988281 20.640625 9.824219 C 20.601562 9.777344 20.597656 9.730469 20.5625 9.683594 C 20.523438 9.617188 20.4375 9.582031 20.382812 9.527344 Z M 20.382812 9.527344 "/></g><path style=" stroke:none;fill-rule:evenodd;fill:#ce8b2c;fill-opacity:1;" d="M 13.332031 20.429688 L 15.816406 20.429688 C 16.105469 20.429688 16.382812 20.367188 16.605469 20.261719 C 16.984375 20.085938 17.160156 19.847656 17.160156 19.539062 L 17.160156 18.890625 C 17.160156 18.640625 16.957031 18.40625 16.546875 18.242188 C 16.335938 18.164062 16.074219 18.117188 15.816406 18.117188 L 14.773438 18.117188 C 14.421875 18.117188 14.257812 18.007812 14.210938 17.773438 C 14.203125 17.746094 14.203125 17.71875 14.203125 17.691406 L 14.203125 17.292969 C 14.203125 17.273438 14.203125 17.246094 14.210938 17.21875 C 14.257812 17.035156 14.347656 16.988281 14.65625 16.957031 L 17.195312 16.957031 L 17.195312 16.367188 L 14.78125 16.367188 C 14.429688 16.367188 14.246094 16.390625 14.082031 16.441406 C 13.570312 16.605469 13.347656 16.863281 13.347656 17.3125 L 13.347656 17.824219 C 13.347656 18.222656 13.78125 18.5625 14.523438 18.640625 C 14.601562 18.648438 14.6875 18.648438 14.773438 18.648438 L 15.664062 18.648438 C 15.699219 18.648438 15.730469 18.648438 15.757812 18.65625 C 16.027344 18.683594 16.144531 18.730469 16.226562 18.832031 C 16.277344 18.886719 16.292969 18.933594 16.292969 18.992188 L 16.292969 19.503906 C 16.292969 19.566406 16.253906 19.648438 16.171875 19.714844 C 16.09375 19.78125 15.96875 19.828125 15.804688 19.835938 C 15.769531 19.835938 15.75 19.84375 15.71875 19.84375 L 13.332031 19.84375 Z M 22.535156 19.410156 C 22.535156 20.011719 22.980469 20.347656 23.863281 20.414062 C 23.949219 20.421875 24.027344 20.429688 24.113281 20.429688 L 26.359375 20.429688 L 26.359375 19.84375 L 24.09375 19.84375 C 23.59375 19.84375 23.402344 19.714844 23.402344 19.402344 L 23.402344 16.367188 L 22.535156 16.367188 Z M 17.710938 19.4375 L 17.710938 17.347656 C 17.710938 16.8125 18.078125 16.488281 18.800781 16.390625 C 18.878906 16.382812 18.957031 16.375 19.03125 16.375 L 20.667969 16.375 C 20.753906 16.375 20.824219 16.382812 20.910156 16.390625 C 21.632812 16.488281 21.992188 16.8125 21.992188 17.347656 L 21.992188 19.4375 C 21.992188 19.871094 21.84375 20.097656 21.484375 20.253906 L 22.332031 21.035156 L 21.332031 21.035156 L 20.648438 20.402344 L 19.953125 20.441406 L 19.03125 20.441406 C 18.859375 20.441406 18.691406 20.417969 18.527344 20.375 C 17.980469 20.21875 17.710938 19.921875 17.710938 19.4375 Z M 18.640625 19.390625 C 18.640625 19.417969 18.65625 19.445312 18.660156 19.480469 C 18.707031 19.722656 18.929688 19.855469 19.273438 19.855469 L 20.054688 19.855469 L 19.339844 19.195312 L 20.335938 19.195312 L 20.964844 19.773438 C 21.082031 19.707031 21.15625 19.613281 21.183594 19.492188 C 21.1875 19.464844 21.1875 19.429688 21.1875 19.402344 L 21.1875 17.402344 C 21.1875 17.375 21.1875 17.347656 21.183594 17.320312 C 21.136719 17.089844 20.910156 16.960938 20.574219 16.960938 L 19.273438 16.960938 C 18.890625 16.960938 18.640625 17.132812 18.640625 17.402344 Z M 18.640625 19.390625 "/></g></svg>