<svg xmlns="http://www.w3.org/2000/svg" xmlns:xlink="http://www.w3.org/1999/xlink" width="40" zoomAndPan="magnify" viewBox="0 0 30 30.000001" height="40" preserveAspectRatio="xMidYMid meet" version="1.2"><defs><clipPath id="085ac222a0"><path d="M 3.785156 7.753906 L 26.285156 7.753906 L 26.285156 21.542969 L 3.785156 21.542969 Z M 3.785156 7.753906 "/></clipPath></defs><g id="a75a2801d6"><g clip-rule="nonzero" clip-path="url(#085ac222a0)"><path style=" stroke:none;fill-rule:nonzero;fill:#000000;fill-opacity:1;" d="M 9.097656 11.347656 L 13.339844 11.347656 L 13.339844 11.691406 L 9.488281 11.691406 L 9.488281 14.269531 L 13.109375 14.269531 L 13.109375 14.613281 L 9.488281 14.613281 L 9.488281 17.445312 L 13.382812 17.445312 L 13.382812 17.789062 L 9.097656 17.789062 Z M 13.71875 11.347656 L 14.167969 11.347656 L 16.167969 14.179688 L 18.207031 11.347656 L 20.984375 7.753906 L 16.421875 14.476562 L 18.773438 17.789062 L 18.304688 17.789062 L 16.167969 14.773438 L 14.019531 17.789062 L 13.558594 17.789062 L 15.925781 14.476562 Z M 18.941406 11.691406 L 18.941406 11.347656 L 23.773438 11.347656 L 23.773438 11.691406 L 21.546875 11.691406 L 21.546875 17.785156 L 21.160156 17.785156 L 21.160156 11.691406 Z M 3.792969 11.347656 L 4.277344 11.347656 L 10.980469 21.542969 L 8.210938 17.789062 L 4.199219 11.835938 L 4.179688 17.789062 L 3.792969 17.789062 Z M 23.734375 17.339844 C 23.65625 17.339844 23.59375 17.277344 23.59375 17.199219 C 23.59375 17.117188 23.65625 17.054688 23.734375 17.054688 C 23.816406 17.054688 23.875 17.117188 23.875 17.199219 C 23.875 17.277344 23.816406 17.339844 23.734375 17.339844 Z M 24.117188 16.964844 L 24.324219 16.964844 C 24.328125 17.078125 24.410156 17.15625 24.53125 17.15625 C 24.664062 17.15625 24.742188 17.074219 24.742188 16.917969 L 24.742188 15.9375 L 24.953125 15.9375 L 24.953125 16.917969 C 24.953125 17.199219 24.796875 17.359375 24.53125 17.359375 C 24.285156 17.359375 24.117188 17.203125 24.117188 16.964844 Z M 25.230469 16.949219 L 25.441406 16.949219 C 25.460938 17.082031 25.585938 17.167969 25.769531 17.167969 C 25.9375 17.167969 26.0625 17.078125 26.0625 16.953125 C 26.0625 16.847656 25.984375 16.785156 25.804688 16.742188 L 25.628906 16.699219 C 25.378906 16.640625 25.269531 16.519531 25.269531 16.3125 C 25.269531 16.066406 25.46875 15.902344 25.765625 15.902344 C 26.042969 15.902344 26.242188 16.066406 26.257812 16.300781 L 26.050781 16.300781 C 26.03125 16.171875 25.921875 16.09375 25.761719 16.09375 C 25.59375 16.09375 25.484375 16.175781 25.484375 16.300781 C 25.484375 16.398438 25.554688 16.457031 25.734375 16.496094 L 25.882812 16.535156 C 26.164062 16.601562 26.277344 16.71875 26.277344 16.925781 C 26.277344 17.191406 26.074219 17.359375 25.753906 17.359375 C 25.449219 17.359375 25.246094 17.199219 25.230469 16.949219 Z M 25.230469 16.949219 "/></g></g></svg>