<svg xmlns="http://www.w3.org/2000/svg" xmlns:xlink="http://www.w3.org/1999/xlink" width="40" zoomAndPan="magnify" viewBox="0 0 30 30.000001" height="40" preserveAspectRatio="xMidYMid meet" version="1.2"><defs><clipPath id="912f311829"><path d="M 2.671875 8.09375 L 27.347656 8.09375 L 27.347656 20.910156 L 2.671875 20.910156 Z M 2.671875 8.09375 "/></clipPath><clipPath id="8d0232afb2"><path d="M 2.671875 14.5 C 2.671875 18.027344 8.195312 20.886719 15.011719 20.886719 C 21.824219 20.886719 27.347656 18.027344 27.347656 14.5 C 27.347656 10.976562 21.824219 8.117188 15.011719 8.117188 C 8.195312 8.117188 2.671875 10.976562 2.671875 14.5 "/></clipPath><clipPath id="00fe1766d7"><path d="M 2.671875 14.5 C 2.671875 18.027344 8.195312 20.886719 15.011719 20.886719 C 21.824219 20.886719 27.347656 18.027344 27.347656 14.5 C 27.347656 10.976562 21.824219 8.117188 15.011719 8.117188 C 8.195312 8.117188 2.671875 10.976562 2.671875 14.5 "/></clipPath><radialGradient gradientTransform="matrix(1.008208,0,0,0.991792,10.079332,10.361214)" id="23aa3b8020" gradientUnits="userSpaceOnUse" r="16.070573" cx="0" fx="0" cy="0" fy="0"><stop style="stop-color:#aeb2d5;stop-opacity:1;" offset="0"/><stop style="stop-color:#aeb2d5;stop-opacity:1;" offset="0.25"/><stop style="stop-color:#aeb2d5;stop-opacity:1;" offset="0.296875"/><stop style="stop-color:#adb1d4;stop-opacity:1;" offset="0.300781"/><stop style="stop-color:#acb0d4;stop-opacity:1;" offset="0.304688"/><stop style="stop-color:#acb0d3;stop-opacity:1;" offset="0.308594"/><stop style="stop-color:#abafd2;stop-opacity:1;" offset="0.3125"/><stop style="stop-color:#aaaed2;stop-opacity:1;" offset="0.316406"/><stop style="stop-color:#a9add1;stop-opacity:1;" offset="0.320312"/><stop style="stop-color:#a8acd1;stop-opacity:1;" offset="0.324219"/><stop style="stop-color:#a7abd0;stop-opacity:1;" offset="0.328125"/><stop style="stop-color:#a6aacf;stop-opacity:1;" offset="0.332031"/><stop style="stop-color:#a5a9cf;stop-opacity:1;" offset="0.335938"/><stop style="stop-color:#a4a9ce;stop-opacity:1;" offset="0.339844"/><stop style="stop-color:#a4a8cd;stop-opacity:1;" offset="0.34375"/><stop style="stop-color:#a3a7cd;stop-opacity:1;" offset="0.347656"/><stop style="stop-color:#a2a6cc;stop-opacity:1;" offset="0.351562"/><stop style="stop-color:#a1a5cb;stop-opacity:1;" offset="0.355469"/><stop style="stop-color:#a0a4cb;stop-opacity:1;" offset="0.359375"/><stop style="stop-color:#9fa3ca;stop-opacity:1;" offset="0.363281"/><stop style="stop-color:#9ea2c9;stop-opacity:1;" offset="0.367188"/><stop style="stop-color:#9da1c9;stop-opacity:1;" offset="0.371094"/><stop style="stop-color:#9ca1c8;stop-opacity:1;" offset="0.375"/><stop style="stop-color:#9ca0c7;stop-opacity:1;" offset="0.378906"/><stop style="stop-color:#9b9fc7;stop-opacity:1;" offset="0.382812"/><stop style="stop-color:#9a9ec6;stop-opacity:1;" offset="0.386719"/><stop style="stop-color:#999dc5;stop-opacity:1;" offset="0.390625"/><stop style="stop-color:#989cc5;stop-opacity:1;" offset="0.394531"/><stop style="stop-color:#979bc4;stop-opacity:1;" offset="0.398438"/><stop style="stop-color:#969ac3;stop-opacity:1;" offset="0.402344"/><stop style="stop-color:#9599c3;stop-opacity:1;" offset="0.40625"/><stop style="stop-color:#9499c2;stop-opacity:1;" offset="0.410156"/><stop style="stop-color:#9498c1;stop-opacity:1;" offset="0.414062"/><stop style="stop-color:#9397c1;stop-opacity:1;" offset="0.417969"/><stop style="stop-color:#9296c0;stop-opacity:1;" offset="0.421875"/><stop style="stop-color:#9195bf;stop-opacity:1;" offset="0.425781"/><stop style="stop-color:#9094bf;stop-opacity:1;" offset="0.429688"/><stop style="stop-color:#8f93be;stop-opacity:1;" offset="0.433594"/><stop style="stop-color:#8e92bd;stop-opacity:1;" offset="0.4375"/><stop style="stop-color:#8d91bd;stop-opacity:1;" offset="0.441406"/><stop style="stop-color:#8d91bc;stop-opacity:1;" offset="0.445312"/><stop style="stop-color:#8c90bb;stop-opacity:1;" offset="0.449219"/><stop style="stop-color:#8b8fbb;stop-opacity:1;" offset="0.453125"/><stop style="stop-color:#8a8eba;stop-opacity:1;" offset="0.457031"/><stop style="stop-color:#898db9;stop-opacity:1;" offset="0.460938"/><stop style="stop-color:#888cb9;stop-opacity:1;" offset="0.464844"/><stop style="stop-color:#878bb8;stop-opacity:1;" offset="0.46875"/><stop style="stop-color:#868ab7;stop-opacity:1;" offset="0.472656"/><stop style="stop-color:#858ab7;stop-opacity:1;" offset="0.476562"/><stop style="stop-color:#8589b6;stop-opacity:1;" offset="0.480469"/><stop style="stop-color:#8488b5;stop-opacity:1;" offset="0.484375"/><stop style="stop-color:#8387b5;stop-opacity:1;" offset="0.488281"/><stop style="stop-color:#8286b4;stop-opacity:1;" offset="0.492188"/><stop style="stop-color:#8185b3;stop-opacity:1;" offset="0.496094"/><stop style="stop-color:#8084b3;stop-opacity:1;" offset="0.5"/><stop style="stop-color:#7f83b2;stop-opacity:1;" offset="0.503906"/><stop style="stop-color:#7e82b1;stop-opacity:1;" offset="0.507812"/><stop style="stop-color:#7d82b1;stop-opacity:1;" offset="0.511719"/><stop style="stop-color:#7d81b0;stop-opacity:1;" offset="0.515625"/><stop style="stop-color:#7c80b0;stop-opacity:1;" offset="0.519531"/><stop style="stop-color:#7b7faf;stop-opacity:1;" offset="0.523438"/><stop style="stop-color:#7a7eae;stop-opacity:1;" offset="0.527344"/><stop style="stop-color:#797dae;stop-opacity:1;" offset="0.53125"/><stop style="stop-color:#787cad;stop-opacity:1;" offset="0.535156"/><stop style="stop-color:#777bac;stop-opacity:1;" offset="0.539062"/><stop style="stop-color:#767aac;stop-opacity:1;" offset="0.542969"/><stop style="stop-color:#767aab;stop-opacity:1;" offset="0.546875"/><stop style="stop-color:#7579aa;stop-opacity:1;" offset="0.550781"/><stop style="stop-color:#7478aa;stop-opacity:1;" offset="0.554688"/><stop style="stop-color:#7377a9;stop-opacity:1;" offset="0.558594"/><stop style="stop-color:#7276a8;stop-opacity:1;" offset="0.5625"/><stop style="stop-color:#7175a8;stop-opacity:1;" offset="0.566406"/><stop style="stop-color:#7074a7;stop-opacity:1;" offset="0.570312"/><stop style="stop-color:#6f73a6;stop-opacity:1;" offset="0.574219"/><stop style="stop-color:#6e73a6;stop-opacity:1;" offset="0.578125"/><stop style="stop-color:#6e72a5;stop-opacity:1;" offset="0.582031"/><stop style="stop-color:#6d71a4;stop-opacity:1;" offset="0.585938"/><stop style="stop-color:#6c70a4;stop-opacity:1;" offset="0.589844"/><stop style="stop-color:#6b6fa3;stop-opacity:1;" offset="0.59375"/><stop style="stop-color:#6a6ea2;stop-opacity:1;" offset="0.597656"/><stop style="stop-color:#696da2;stop-opacity:1;" offset="0.601562"/><stop style="stop-color:#686ca1;stop-opacity:1;" offset="0.605469"/><stop style="stop-color:#676ba0;stop-opacity:1;" offset="0.609375"/><stop style="stop-color:#666ba0;stop-opacity:1;" offset="0.613281"/><stop style="stop-color:#666a9f;stop-opacity:1;" offset="0.617188"/><stop style="stop-color:#65699e;stop-opacity:1;" offset="0.621094"/><stop style="stop-color:#64689e;stop-opacity:1;" offset="0.625"/><stop style="stop-color:#63679d;stop-opacity:1;" offset="0.628906"/><stop style="stop-color:#62669c;stop-opacity:1;" offset="0.632812"/><stop style="stop-color:#61659c;stop-opacity:1;" offset="0.636719"/><stop style="stop-color:#60649b;stop-opacity:1;" offset="0.640625"/><stop style="stop-color:#5f639a;stop-opacity:1;" offset="0.644531"/><stop style="stop-color:#5e639a;stop-opacity:1;" offset="0.648438"/><stop style="stop-color:#5e6299;stop-opacity:1;" offset="0.652344"/><stop style="stop-color:#5d6198;stop-opacity:1;" offset="0.65625"/><stop style="stop-color:#5c6098;stop-opacity:1;" offset="0.660156"/><stop style="stop-color:#5b5f97;stop-opacity:1;" offset="0.664062"/><stop style="stop-color:#5a5e96;stop-opacity:1;" offset="0.667969"/><stop style="stop-color:#595d96;stop-opacity:1;" offset="0.671875"/><stop style="stop-color:#585c95;stop-opacity:1;" offset="0.675781"/><stop style="stop-color:#575b94;stop-opacity:1;" offset="0.679688"/><stop style="stop-color:#575b94;stop-opacity:1;" offset="0.683594"/><stop style="stop-color:#565a93;stop-opacity:1;" offset="0.6875"/><stop style="stop-color:#555992;stop-opacity:1;" offset="0.691406"/><stop style="stop-color:#545892;stop-opacity:1;" offset="0.695312"/><stop style="stop-color:#535791;stop-opacity:1;" offset="0.699219"/><stop style="stop-color:#525691;stop-opacity:1;" offset="0.703125"/><stop style="stop-color:#515590;stop-opacity:1;" offset="0.707031"/><stop style="stop-color:#50548f;stop-opacity:1;" offset="0.710938"/><stop style="stop-color:#4f548f;stop-opacity:1;" offset="0.714844"/><stop style="stop-color:#4f538e;stop-opacity:1;" offset="0.71875"/><stop style="stop-color:#4e528d;stop-opacity:1;" offset="0.722656"/><stop style="stop-color:#4d518d;stop-opacity:1;" offset="0.726562"/><stop style="stop-color:#4c508c;stop-opacity:1;" offset="0.730469"/><stop style="stop-color:#4b4f8b;stop-opacity:1;" offset="0.734375"/><stop style="stop-color:#4a4e8b;stop-opacity:1;" offset="0.738281"/><stop style="stop-color:#494d8a;stop-opacity:1;" offset="0.742188"/><stop style="stop-color:#484c89;stop-opacity:1;" offset="0.746094"/><stop style="stop-color:#484c89;stop-opacity:1;" offset="1"/></radialGradient><clipPath id="0465927f30"><path d="M 2.671875 8.09375 L 27.347656 8.09375 L 27.347656 20.910156 L 2.671875 20.910156 Z M 2.671875 8.09375 "/></clipPath><clipPath id="ec9750e321"><path d="M 2.671875 14.5 C 2.671875 18.027344 8.195312 20.886719 15.011719 20.886719 C 21.824219 20.886719 27.347656 18.027344 27.347656 14.5 C 27.347656 10.976562 21.824219 8.117188 15.011719 8.117188 C 8.195312 8.117188 2.671875 10.976562 2.671875 14.5 "/></clipPath><clipPath id="d0bfc8f9d6"><path d="M 2.671875 14.5 C 2.671875 18.027344 8.195312 20.886719 15.011719 20.886719 C 21.824219 20.886719 27.347656 18.027344 27.347656 14.5 C 27.347656 10.976562 21.824219 8.117188 15.011719 8.117188 C 8.195312 8.117188 2.671875 10.976562 2.671875 14.5 "/></clipPath><radialGradient gradientTransform="matrix(1.008208,0,0,0.991792,10.079332,10.361214)" id="60486df10d" gradientUnits="userSpaceOnUse" r="16.070573" cx="0" fx="0" cy="0" fy="0"><stop style="stop-color:#aeb2d5;stop-opacity:1;" offset="0"/><stop style="stop-color:#aeb2d5;stop-opacity:1;" offset="0.25"/><stop style="stop-color:#aeb2d5;stop-opacity:1;" offset="0.296875"/><stop style="stop-color:#adb1d4;stop-opacity:1;" offset="0.300781"/><stop style="stop-color:#acb0d4;stop-opacity:1;" offset="0.304688"/><stop style="stop-color:#acb0d3;stop-opacity:1;" offset="0.308594"/><stop style="stop-color:#abafd2;stop-opacity:1;" offset="0.3125"/><stop style="stop-color:#aaaed2;stop-opacity:1;" offset="0.316406"/><stop style="stop-color:#a9add1;stop-opacity:1;" offset="0.320312"/><stop style="stop-color:#a8acd1;stop-opacity:1;" offset="0.324219"/><stop style="stop-color:#a7abd0;stop-opacity:1;" offset="0.328125"/><stop style="stop-color:#a6aacf;stop-opacity:1;" offset="0.332031"/><stop style="stop-color:#a5a9cf;stop-opacity:1;" offset="0.335938"/><stop style="stop-color:#a4a9ce;stop-opacity:1;" offset="0.339844"/><stop style="stop-color:#a4a8cd;stop-opacity:1;" offset="0.34375"/><stop style="stop-color:#a3a7cd;stop-opacity:1;" offset="0.347656"/><stop style="stop-color:#a2a6cc;stop-opacity:1;" offset="0.351562"/><stop style="stop-color:#a1a5cb;stop-opacity:1;" offset="0.355469"/><stop style="stop-color:#a0a4cb;stop-opacity:1;" offset="0.359375"/><stop style="stop-color:#9fa3ca;stop-opacity:1;" offset="0.363281"/><stop style="stop-color:#9ea2c9;stop-opacity:1;" offset="0.367188"/><stop style="stop-color:#9da1c9;stop-opacity:1;" offset="0.371094"/><stop style="stop-color:#9ca1c8;stop-opacity:1;" offset="0.375"/><stop style="stop-color:#9ca0c7;stop-opacity:1;" offset="0.378906"/><stop style="stop-color:#9b9fc7;stop-opacity:1;" offset="0.382812"/><stop style="stop-color:#9a9ec6;stop-opacity:1;" offset="0.386719"/><stop style="stop-color:#999dc5;stop-opacity:1;" offset="0.390625"/><stop style="stop-color:#989cc5;stop-opacity:1;" offset="0.394531"/><stop style="stop-color:#979bc4;stop-opacity:1;" offset="0.398438"/><stop style="stop-color:#969ac3;stop-opacity:1;" offset="0.402344"/><stop style="stop-color:#9599c3;stop-opacity:1;" offset="0.40625"/><stop style="stop-color:#9499c2;stop-opacity:1;" offset="0.410156"/><stop style="stop-color:#9498c1;stop-opacity:1;" offset="0.414062"/><stop style="stop-color:#9397c1;stop-opacity:1;" offset="0.417969"/><stop style="stop-color:#9296c0;stop-opacity:1;" offset="0.421875"/><stop style="stop-color:#9195bf;stop-opacity:1;" offset="0.425781"/><stop style="stop-color:#9094bf;stop-opacity:1;" offset="0.429688"/><stop style="stop-color:#8f93be;stop-opacity:1;" offset="0.433594"/><stop style="stop-color:#8e92bd;stop-opacity:1;" offset="0.4375"/><stop style="stop-color:#8d91bd;stop-opacity:1;" offset="0.441406"/><stop style="stop-color:#8d91bc;stop-opacity:1;" offset="0.445312"/><stop style="stop-color:#8c90bb;stop-opacity:1;" offset="0.449219"/><stop style="stop-color:#8b8fbb;stop-opacity:1;" offset="0.453125"/><stop style="stop-color:#8a8eba;stop-opacity:1;" offset="0.457031"/><stop style="stop-color:#898db9;stop-opacity:1;" offset="0.460938"/><stop style="stop-color:#888cb9;stop-opacity:1;" offset="0.464844"/><stop style="stop-color:#878bb8;stop-opacity:1;" offset="0.46875"/><stop style="stop-color:#868ab7;stop-opacity:1;" offset="0.472656"/><stop style="stop-color:#858ab7;stop-opacity:1;" offset="0.476562"/><stop style="stop-color:#8589b6;stop-opacity:1;" offset="0.480469"/><stop style="stop-color:#8488b5;stop-opacity:1;" offset="0.484375"/><stop style="stop-color:#8387b5;stop-opacity:1;" offset="0.488281"/><stop style="stop-color:#8286b4;stop-opacity:1;" offset="0.492188"/><stop style="stop-color:#8185b3;stop-opacity:1;" offset="0.496094"/><stop style="stop-color:#8084b3;stop-opacity:1;" offset="0.5"/><stop style="stop-color:#7f83b2;stop-opacity:1;" offset="0.503906"/><stop style="stop-color:#7e82b1;stop-opacity:1;" offset="0.507812"/><stop style="stop-color:#7d82b1;stop-opacity:1;" offset="0.511719"/><stop style="stop-color:#7d81b0;stop-opacity:1;" offset="0.515625"/><stop style="stop-color:#7c80b0;stop-opacity:1;" offset="0.519531"/><stop style="stop-color:#7b7faf;stop-opacity:1;" offset="0.523438"/><stop style="stop-color:#7a7eae;stop-opacity:1;" offset="0.527344"/><stop style="stop-color:#797dae;stop-opacity:1;" offset="0.53125"/><stop style="stop-color:#787cad;stop-opacity:1;" offset="0.535156"/><stop style="stop-color:#777bac;stop-opacity:1;" offset="0.539062"/><stop style="stop-color:#767aac;stop-opacity:1;" offset="0.542969"/><stop style="stop-color:#767aab;stop-opacity:1;" offset="0.546875"/><stop style="stop-color:#7579aa;stop-opacity:1;" offset="0.550781"/><stop style="stop-color:#7478aa;stop-opacity:1;" offset="0.554688"/><stop style="stop-color:#7377a9;stop-opacity:1;" offset="0.558594"/><stop style="stop-color:#7276a8;stop-opacity:1;" offset="0.5625"/><stop style="stop-color:#7175a8;stop-opacity:1;" offset="0.566406"/><stop style="stop-color:#7074a7;stop-opacity:1;" offset="0.570312"/><stop style="stop-color:#6f73a6;stop-opacity:1;" offset="0.574219"/><stop style="stop-color:#6e73a6;stop-opacity:1;" offset="0.578125"/><stop style="stop-color:#6e72a5;stop-opacity:1;" offset="0.582031"/><stop style="stop-color:#6d71a4;stop-opacity:1;" offset="0.585938"/><stop style="stop-color:#6c70a4;stop-opacity:1;" offset="0.589844"/><stop style="stop-color:#6b6fa3;stop-opacity:1;" offset="0.59375"/><stop style="stop-color:#6a6ea2;stop-opacity:1;" offset="0.597656"/><stop style="stop-color:#696da2;stop-opacity:1;" offset="0.601562"/><stop style="stop-color:#686ca1;stop-opacity:1;" offset="0.605469"/><stop style="stop-color:#676ba0;stop-opacity:1;" offset="0.609375"/><stop style="stop-color:#666ba0;stop-opacity:1;" offset="0.613281"/><stop style="stop-color:#666a9f;stop-opacity:1;" offset="0.617188"/><stop style="stop-color:#65699e;stop-opacity:1;" offset="0.621094"/><stop style="stop-color:#64689e;stop-opacity:1;" offset="0.625"/><stop style="stop-color:#63679d;stop-opacity:1;" offset="0.628906"/><stop style="stop-color:#62669c;stop-opacity:1;" offset="0.632812"/><stop style="stop-color:#61659c;stop-opacity:1;" offset="0.636719"/><stop style="stop-color:#60649b;stop-opacity:1;" offset="0.640625"/><stop style="stop-color:#5f639a;stop-opacity:1;" offset="0.644531"/><stop style="stop-color:#5e639a;stop-opacity:1;" offset="0.648438"/><stop style="stop-color:#5e6299;stop-opacity:1;" offset="0.652344"/><stop style="stop-color:#5d6198;stop-opacity:1;" offset="0.65625"/><stop style="stop-color:#5c6098;stop-opacity:1;" offset="0.660156"/><stop style="stop-color:#5b5f97;stop-opacity:1;" offset="0.664062"/><stop style="stop-color:#5a5e96;stop-opacity:1;" offset="0.667969"/><stop style="stop-color:#595d96;stop-opacity:1;" offset="0.671875"/><stop style="stop-color:#585c95;stop-opacity:1;" offset="0.675781"/><stop style="stop-color:#575b94;stop-opacity:1;" offset="0.679688"/><stop style="stop-color:#575b94;stop-opacity:1;" offset="0.683594"/><stop style="stop-color:#565a93;stop-opacity:1;" offset="0.6875"/><stop style="stop-color:#555992;stop-opacity:1;" offset="0.691406"/><stop style="stop-color:#545892;stop-opacity:1;" offset="0.695312"/><stop style="stop-color:#535791;stop-opacity:1;" offset="0.699219"/><stop style="stop-color:#525691;stop-opacity:1;" offset="0.703125"/><stop style="stop-color:#515590;stop-opacity:1;" offset="0.707031"/><stop style="stop-color:#50548f;stop-opacity:1;" offset="0.710938"/><stop style="stop-color:#4f548f;stop-opacity:1;" offset="0.714844"/><stop style="stop-color:#4f538e;stop-opacity:1;" offset="0.71875"/><stop style="stop-color:#4e528d;stop-opacity:1;" offset="0.722656"/><stop style="stop-color:#4d518d;stop-opacity:1;" offset="0.726562"/><stop style="stop-color:#4c508c;stop-opacity:1;" offset="0.730469"/><stop style="stop-color:#4b4f8b;stop-opacity:1;" offset="0.734375"/><stop style="stop-color:#4a4e8b;stop-opacity:1;" offset="0.738281"/><stop style="stop-color:#494d8a;stop-opacity:1;" offset="0.742188"/><stop style="stop-color:#484c89;stop-opacity:1;" offset="0.746094"/><stop style="stop-color:#484c89;stop-opacity:1;" offset="1"/></radialGradient></defs><g id="f7cdbd570f"><g clip-rule="nonzero" clip-path="url(#912f311829)"><g clip-rule="nonzero" clip-path="url(#8d0232afb2)"><g clip-rule="nonzero" clip-path="url(#00fe1766d7)"><path style=" stroke:none;fill-rule:nonzero;fill:url(#23aa3b8020);" d="M 2.671875 8.117188 L 2.671875 20.886719 L 27.347656 20.886719 L 27.347656 8.117188 Z M 2.671875 8.117188 "/></g></g></g><path style=" stroke:none;fill-rule:nonzero;fill:#777bb3;fill-opacity:1;" d="M 15.011719 20.414062 C 21.558594 20.414062 26.867188 17.765625 26.867188 14.5 C 26.867188 11.238281 21.558594 8.589844 15.011719 8.589844 C 8.460938 8.589844 3.152344 11.238281 3.152344 14.5 C 3.152344 17.765625 8.460938 20.414062 15.011719 20.414062 "/><path style=" stroke:none;fill-rule:nonzero;fill:#000000;fill-opacity:1;" d="M 9.375 15.234375 C 9.914062 15.234375 10.316406 15.136719 10.570312 14.945312 C 10.820312 14.753906 10.996094 14.421875 11.085938 13.960938 C 11.171875 13.53125 11.136719 13.230469 10.988281 13.070312 C 10.835938 12.902344 10.507812 12.820312 10.011719 12.820312 L 9.152344 12.820312 L 8.675781 15.234375 Z M 6.558594 18.207031 C 6.519531 18.207031 6.484375 18.191406 6.457031 18.160156 C 6.429688 18.128906 6.421875 18.09375 6.429688 18.050781 L 7.691406 11.652344 C 7.707031 11.582031 7.75 11.546875 7.824219 11.546875 L 10.550781 11.546875 C 11.40625 11.546875 12.042969 11.773438 12.445312 12.226562 C 12.847656 12.679688 12.972656 13.3125 12.8125 14.109375 C 12.75 14.433594 12.640625 14.738281 12.484375 15.007812 C 12.332031 15.277344 12.128906 15.527344 11.882812 15.75 C 11.585938 16.023438 11.253906 16.21875 10.890625 16.335938 C 10.535156 16.449219 10.074219 16.507812 9.527344 16.507812 L 8.425781 16.507812 L 8.109375 18.101562 C 8.09375 18.171875 8.050781 18.207031 7.976562 18.207031 Z M 6.558594 18.207031 "/><path style=" stroke:none;fill-rule:nonzero;fill:#ffffff;fill-opacity:1;" d="M 9.261719 12.953125 L 10.011719 12.953125 C 10.613281 12.953125 10.820312 13.082031 10.890625 13.15625 C 11.007812 13.285156 11.03125 13.554688 10.953125 13.9375 C 10.871094 14.367188 10.710938 14.667969 10.488281 14.839844 C 10.257812 15.015625 9.882812 15.101562 9.375 15.101562 L 8.835938 15.101562 Z M 10.550781 11.414062 L 7.824219 11.414062 C 7.675781 11.414062 7.589844 11.484375 7.5625 11.628906 L 6.296875 18.027344 C 6.28125 18.109375 6.300781 18.179688 6.355469 18.246094 C 6.40625 18.308594 6.476562 18.339844 6.5625 18.339844 L 7.976562 18.339844 C 8.125 18.339844 8.210938 18.269531 8.242188 18.128906 L 8.535156 16.640625 L 9.527344 16.640625 C 10.089844 16.640625 10.5625 16.578125 10.933594 16.460938 C 11.3125 16.339844 11.664062 16.132812 11.972656 15.847656 C 12.230469 15.613281 12.441406 15.351562 12.601562 15.070312 C 12.761719 14.789062 12.878906 14.472656 12.945312 14.136719 C 13.109375 13.296875 12.976562 12.625 12.542969 12.140625 C 12.117188 11.660156 11.445312 11.414062 10.550781 11.414062 M 8.511719 15.367188 L 9.375 15.367188 C 9.945312 15.367188 10.371094 15.261719 10.652344 15.046875 C 10.929688 14.835938 11.121094 14.484375 11.21875 13.988281 C 11.3125 13.511719 11.269531 13.175781 11.089844 12.980469 C 10.910156 12.785156 10.550781 12.6875 10.011719 12.6875 L 9.042969 12.6875 L 8.511719 15.367188 M 10.550781 11.679688 C 11.371094 11.679688 11.96875 11.890625 12.34375 12.3125 C 12.71875 12.738281 12.832031 13.328125 12.683594 14.085938 C 12.621094 14.398438 12.515625 14.683594 12.367188 14.941406 C 12.222656 15.203125 12.03125 15.4375 11.792969 15.652344 C 11.507812 15.914062 11.195312 16.097656 10.847656 16.210938 C 10.503906 16.320312 10.0625 16.375 9.527344 16.375 L 8.3125 16.375 L 7.976562 18.078125 L 6.5625 18.078125 L 7.824219 11.679688 L 10.550781 11.679688 "/><path style=" stroke:none;fill-rule:nonzero;fill:#000000;fill-opacity:1;" d="M 16.0625 16.507812 C 16.023438 16.507812 15.984375 16.488281 15.957031 16.460938 C 15.933594 16.429688 15.921875 16.390625 15.929688 16.351562 L 16.488281 13.519531 C 16.542969 13.25 16.53125 13.058594 16.453125 12.976562 C 16.40625 12.925781 16.265625 12.839844 15.847656 12.839844 L 14.832031 12.839844 L 14.128906 16.402344 C 14.117188 16.472656 14.070312 16.507812 14 16.507812 L 12.59375 16.507812 C 12.484375 16.507812 12.441406 16.453125 12.460938 16.351562 L 13.726562 9.953125 C 13.738281 9.882812 13.78125 9.84375 13.855469 9.84375 L 15.261719 9.84375 C 15.371094 9.84375 15.414062 9.898438 15.394531 10.003906 L 15.089844 11.546875 L 16.179688 11.546875 C 17.007812 11.546875 17.570312 11.691406 17.898438 11.988281 C 18.234375 12.289062 18.339844 12.773438 18.210938 13.421875 L 17.621094 16.402344 C 17.609375 16.472656 17.5625 16.507812 17.488281 16.507812 Z M 16.0625 16.507812 "/><path style=" stroke:none;fill-rule:nonzero;fill:#ffffff;fill-opacity:1;" d="M 15.261719 9.714844 L 13.855469 9.714844 C 13.710938 9.714844 13.621094 9.785156 13.59375 9.925781 L 12.328125 16.324219 C 12.3125 16.40625 12.332031 16.480469 12.386719 16.542969 C 12.4375 16.605469 12.507812 16.640625 12.59375 16.640625 L 14 16.640625 C 14.144531 16.640625 14.234375 16.566406 14.261719 16.425781 L 14.941406 12.972656 L 15.847656 12.972656 C 16.265625 12.972656 16.351562 13.0625 16.355469 13.066406 C 16.378906 13.089844 16.414062 13.214844 16.359375 13.496094 L 15.800781 16.324219 C 15.785156 16.40625 15.800781 16.480469 15.855469 16.542969 C 15.910156 16.605469 15.976562 16.640625 16.0625 16.640625 L 17.492188 16.640625 C 17.636719 16.640625 17.726562 16.566406 17.753906 16.425781 L 18.339844 13.449219 C 18.480469 12.75 18.363281 12.226562 17.992188 11.890625 C 17.636719 11.570312 17.042969 11.414062 16.179688 11.414062 L 15.25 11.414062 L 15.523438 10.027344 C 15.542969 9.945312 15.523438 9.875 15.46875 9.808594 C 15.414062 9.746094 15.347656 9.714844 15.261719 9.714844 M 15.261719 9.976562 L 14.925781 11.679688 L 16.179688 11.679688 C 16.964844 11.679688 17.511719 11.8125 17.808594 12.082031 C 18.109375 12.355469 18.199219 12.792969 18.078125 13.398438 L 17.492188 16.375 L 16.0625 16.375 L 16.621094 13.542969 C 16.683594 13.222656 16.660156 13.003906 16.550781 12.886719 C 16.441406 12.769531 16.207031 12.710938 15.847656 12.710938 L 14.722656 12.710938 L 14 16.375 L 12.59375 16.375 L 13.855469 9.976562 L 15.261719 9.976562 "/><path style=" stroke:none;fill-rule:nonzero;fill:#000000;fill-opacity:1;" d="M 20.433594 15.234375 C 20.972656 15.234375 21.375 15.136719 21.628906 14.945312 C 21.878906 14.753906 22.054688 14.421875 22.144531 13.960938 C 22.230469 13.53125 22.199219 13.230469 22.050781 13.070312 C 21.898438 12.902344 21.570312 12.820312 21.070312 12.820312 L 20.210938 12.820312 L 19.734375 15.234375 Z M 17.621094 18.207031 C 17.578125 18.207031 17.542969 18.191406 17.515625 18.160156 C 17.488281 18.128906 17.480469 18.09375 17.488281 18.050781 L 18.753906 11.652344 C 18.765625 11.582031 18.8125 11.546875 18.882812 11.546875 L 21.609375 11.546875 C 22.464844 11.546875 23.101562 11.773438 23.503906 12.226562 C 23.90625 12.679688 24.03125 13.3125 23.871094 14.109375 C 23.808594 14.433594 23.699219 14.738281 23.546875 15.007812 C 23.390625 15.277344 23.1875 15.527344 22.941406 15.75 C 22.648438 16.023438 22.3125 16.21875 21.949219 16.335938 C 21.59375 16.449219 21.132812 16.507812 20.585938 16.507812 L 19.484375 16.507812 L 19.167969 18.101562 C 19.152344 18.171875 19.109375 18.207031 19.035156 18.207031 Z M 17.621094 18.207031 "/><path style=" stroke:none;fill-rule:nonzero;fill:#ffffff;fill-opacity:1;" d="M 20.320312 12.953125 L 21.074219 12.953125 C 21.671875 12.953125 21.878906 13.082031 21.949219 13.15625 C 22.066406 13.285156 22.089844 13.554688 22.015625 13.9375 C 21.929688 14.367188 21.773438 14.667969 21.546875 14.839844 C 21.316406 15.015625 20.941406 15.101562 20.433594 15.101562 L 19.898438 15.101562 L 20.324219 12.953125 Z M 21.609375 11.414062 L 18.882812 11.414062 C 18.738281 11.414062 18.648438 11.484375 18.621094 11.628906 L 17.355469 18.027344 C 17.339844 18.109375 17.359375 18.179688 17.414062 18.246094 C 17.46875 18.308594 17.535156 18.339844 17.621094 18.339844 L 19.035156 18.339844 C 19.183594 18.339844 19.273438 18.269531 19.300781 18.128906 L 19.59375 16.640625 L 20.585938 16.640625 C 21.148438 16.640625 21.621094 16.578125 21.992188 16.460938 C 22.371094 16.339844 22.722656 16.132812 23.035156 15.847656 C 23.289062 15.613281 23.5 15.351562 23.660156 15.070312 C 23.820312 14.789062 23.9375 14.472656 24.003906 14.136719 C 24.171875 13.296875 24.035156 12.625 23.605469 12.140625 C 23.175781 11.660156 22.503906 11.414062 21.609375 11.414062 M 19.574219 15.367188 L 20.433594 15.367188 C 21.003906 15.367188 21.429688 15.261719 21.710938 15.046875 C 21.988281 14.835938 22.179688 14.484375 22.277344 13.988281 C 22.371094 13.511719 22.328125 13.175781 22.148438 12.980469 C 21.96875 12.785156 21.609375 12.6875 21.074219 12.6875 L 20.101562 12.6875 L 19.574219 15.367188 M 21.609375 11.679688 C 22.429688 11.679688 23.027344 11.890625 23.402344 12.3125 C 23.777344 12.738281 23.890625 13.328125 23.742188 14.085938 C 23.679688 14.398438 23.574219 14.683594 23.429688 14.941406 C 23.28125 15.203125 23.089844 15.4375 22.851562 15.652344 C 22.570312 15.914062 22.253906 16.097656 21.910156 16.210938 C 21.5625 16.320312 21.121094 16.375 20.585938 16.375 L 19.371094 16.375 L 19.035156 18.078125 L 17.621094 18.078125 L 18.882812 11.679688 L 21.609375 11.679688 "/><g clip-rule="nonzero" clip-path="url(#0465927f30)"><g clip-rule="nonzero" clip-path="url(#ec9750e321)"><g clip-rule="nonzero" clip-path="url(#d0bfc8f9d6)"><path style=" stroke:none;fill-rule:nonzero;fill:url(#60486df10d);" d="M 2.671875 8.117188 L 2.671875 20.886719 L 27.347656 20.886719 L 27.347656 8.117188 Z M 2.671875 8.117188 "/></g></g></g><path style=" stroke:none;fill-rule:nonzero;fill:#777bb3;fill-opacity:1;" d="M 15.011719 20.414062 C 21.558594 20.414062 26.867188 17.765625 26.867188 14.5 C 26.867188 11.238281 21.558594 8.589844 15.011719 8.589844 C 8.460938 8.589844 3.152344 11.238281 3.152344 14.5 C 3.152344 17.765625 8.460938 20.414062 15.011719 20.414062 "/><path style=" stroke:none;fill-rule:nonzero;fill:#000000;fill-opacity:1;" d="M 9.375 15.234375 C 9.914062 15.234375 10.316406 15.136719 10.570312 14.945312 C 10.820312 14.753906 10.996094 14.421875 11.085938 13.960938 C 11.171875 13.53125 11.136719 13.230469 10.988281 13.070312 C 10.835938 12.902344 10.507812 12.820312 10.011719 12.820312 L 9.152344 12.820312 L 8.675781 15.234375 Z M 6.558594 18.207031 C 6.519531 18.207031 6.484375 18.191406 6.457031 18.160156 C 6.429688 18.128906 6.421875 18.09375 6.429688 18.050781 L 7.691406 11.652344 C 7.707031 11.582031 7.75 11.546875 7.824219 11.546875 L 10.550781 11.546875 C 11.40625 11.546875 12.042969 11.773438 12.445312 12.226562 C 12.847656 12.679688 12.972656 13.3125 12.8125 14.109375 C 12.75 14.433594 12.640625 14.738281 12.484375 15.007812 C 12.332031 15.277344 12.128906 15.527344 11.882812 15.75 C 11.585938 16.023438 11.253906 16.21875 10.890625 16.335938 C 10.535156 16.449219 10.074219 16.507812 9.527344 16.507812 L 8.425781 16.507812 L 8.109375 18.101562 C 8.09375 18.171875 8.050781 18.207031 7.976562 18.207031 Z M 6.558594 18.207031 "/><path style=" stroke:none;fill-rule:nonzero;fill:#ffffff;fill-opacity:1;" d="M 9.261719 12.953125 L 10.011719 12.953125 C 10.613281 12.953125 10.820312 13.082031 10.890625 13.15625 C 11.007812 13.285156 11.03125 13.554688 10.953125 13.9375 C 10.871094 14.367188 10.710938 14.667969 10.488281 14.839844 C 10.257812 15.015625 9.882812 15.101562 9.375 15.101562 L 8.835938 15.101562 Z M 10.550781 11.414062 L 7.824219 11.414062 C 7.675781 11.414062 7.589844 11.484375 7.5625 11.628906 L 6.296875 18.027344 C 6.28125 18.109375 6.300781 18.179688 6.355469 18.246094 C 6.40625 18.308594 6.476562 18.339844 6.5625 18.339844 L 7.976562 18.339844 C 8.125 18.339844 8.210938 18.269531 8.242188 18.128906 L 8.535156 16.640625 L 9.527344 16.640625 C 10.089844 16.640625 10.5625 16.578125 10.933594 16.460938 C 11.3125 16.339844 11.664062 16.132812 11.972656 15.847656 C 12.230469 15.613281 12.441406 15.351562 12.601562 15.070312 C 12.761719 14.789062 12.878906 14.472656 12.945312 14.136719 C 13.109375 13.296875 12.976562 12.625 12.542969 12.140625 C 12.117188 11.660156 11.445312 11.414062 10.550781 11.414062 M 8.511719 15.367188 L 9.375 15.367188 C 9.945312 15.367188 10.371094 15.261719 10.652344 15.046875 C 10.929688 14.835938 11.121094 14.484375 11.21875 13.988281 C 11.3125 13.511719 11.269531 13.175781 11.089844 12.980469 C 10.910156 12.785156 10.550781 12.6875 10.011719 12.6875 L 9.042969 12.6875 L 8.511719 15.367188 M 10.550781 11.679688 C 11.371094 11.679688 11.96875 11.890625 12.34375 12.3125 C 12.71875 12.738281 12.832031 13.328125 12.683594 14.085938 C 12.621094 14.398438 12.515625 14.683594 12.367188 14.941406 C 12.222656 15.203125 12.03125 15.4375 11.792969 15.652344 C 11.507812 15.914062 11.195312 16.097656 10.847656 16.210938 C 10.503906 16.320312 10.0625 16.375 9.527344 16.375 L 8.3125 16.375 L 7.976562 18.078125 L 6.5625 18.078125 L 7.824219 11.679688 L 10.550781 11.679688 "/><path style=" stroke:none;fill-rule:nonzero;fill:#000000;fill-opacity:1;" d="M 16.0625 16.507812 C 16.023438 16.507812 15.984375 16.488281 15.957031 16.460938 C 15.933594 16.429688 15.921875 16.390625 15.929688 16.351562 L 16.488281 13.519531 C 16.542969 13.25 16.53125 13.058594 16.453125 12.976562 C 16.40625 12.925781 16.265625 12.839844 15.847656 12.839844 L 14.832031 12.839844 L 14.128906 16.402344 C 14.117188 16.472656 14.070312 16.507812 14 16.507812 L 12.59375 16.507812 C 12.484375 16.507812 12.441406 16.453125 12.460938 16.351562 L 13.726562 9.953125 C 13.738281 9.882812 13.78125 9.84375 13.855469 9.84375 L 15.261719 9.84375 C 15.371094 9.84375 15.414062 9.898438 15.394531 10.003906 L 15.089844 11.546875 L 16.179688 11.546875 C 17.007812 11.546875 17.570312 11.691406 17.898438 11.988281 C 18.234375 12.289062 18.339844 12.773438 18.210938 13.421875 L 17.621094 16.402344 C 17.609375 16.472656 17.5625 16.507812 17.488281 16.507812 Z M 16.0625 16.507812 "/><path style=" stroke:none;fill-rule:nonzero;fill:#ffffff;fill-opacity:1;" d="M 15.261719 9.714844 L 13.855469 9.714844 C 13.710938 9.714844 13.621094 9.785156 13.59375 9.925781 L 12.328125 16.324219 C 12.3125 16.40625 12.332031 16.480469 12.386719 16.542969 C 12.4375 16.605469 12.507812 16.640625 12.59375 16.640625 L 14 16.640625 C 14.144531 16.640625 14.234375 16.566406 14.261719 16.425781 L 14.941406 12.972656 L 15.847656 12.972656 C 16.265625 12.972656 16.351562 13.0625 16.355469 13.066406 C 16.378906 13.089844 16.414062 13.214844 16.359375 13.496094 L 15.800781 16.324219 C 15.785156 16.40625 15.800781 16.480469 15.855469 16.542969 C 15.910156 16.605469 15.976562 16.640625 16.0625 16.640625 L 17.492188 16.640625 C 17.636719 16.640625 17.726562 16.566406 17.753906 16.425781 L 18.339844 13.449219 C 18.480469 12.75 18.363281 12.226562 17.992188 11.890625 C 17.636719 11.570312 17.042969 11.414062 16.179688 11.414062 L 15.25 11.414062 L 15.523438 10.027344 C 15.542969 9.945312 15.523438 9.875 15.46875 9.808594 C 15.414062 9.746094 15.347656 9.714844 15.261719 9.714844 M 15.261719 9.976562 L 14.925781 11.679688 L 16.179688 11.679688 C 16.964844 11.679688 17.511719 11.8125 17.808594 12.082031 C 18.109375 12.355469 18.199219 12.792969 18.078125 13.398438 L 17.492188 16.375 L 16.0625 16.375 L 16.621094 13.542969 C 16.683594 13.222656 16.660156 13.003906 16.550781 12.886719 C 16.441406 12.769531 16.207031 12.710938 15.847656 12.710938 L 14.722656 12.710938 L 14 16.375 L 12.59375 16.375 L 13.855469 9.976562 L 15.261719 9.976562 "/><path style=" stroke:none;fill-rule:nonzero;fill:#000000;fill-opacity:1;" d="M 20.433594 15.234375 C 20.972656 15.234375 21.375 15.136719 21.628906 14.945312 C 21.878906 14.753906 22.054688 14.421875 22.144531 13.960938 C 22.230469 13.53125 22.199219 13.230469 22.050781 13.070312 C 21.898438 12.902344 21.570312 12.820312 21.070312 12.820312 L 20.210938 12.820312 L 19.734375 15.234375 Z M 17.621094 18.207031 C 17.578125 18.207031 17.542969 18.191406 17.515625 18.160156 C 17.488281 18.128906 17.480469 18.09375 17.488281 18.050781 L 18.753906 11.652344 C 18.765625 11.582031 18.8125 11.546875 18.882812 11.546875 L 21.609375 11.546875 C 22.464844 11.546875 23.101562 11.773438 23.503906 12.226562 C 23.90625 12.679688 24.03125 13.3125 23.871094 14.109375 C 23.808594 14.433594 23.699219 14.738281 23.546875 15.007812 C 23.390625 15.277344 23.1875 15.527344 22.941406 15.75 C 22.648438 16.023438 22.3125 16.21875 21.949219 16.335938 C 21.59375 16.449219 21.132812 16.507812 20.585938 16.507812 L 19.484375 16.507812 L 19.167969 18.101562 C 19.152344 18.171875 19.109375 18.207031 19.035156 18.207031 Z M 17.621094 18.207031 "/><path style=" stroke:none;fill-rule:nonzero;fill:#ffffff;fill-opacity:1;" d="M 20.320312 12.953125 L 21.074219 12.953125 C 21.671875 12.953125 21.878906 13.082031 21.949219 13.15625 C 22.066406 13.285156 22.089844 13.554688 22.015625 13.9375 C 21.929688 14.367188 21.773438 14.667969 21.546875 14.839844 C 21.316406 15.015625 20.941406 15.101562 20.433594 15.101562 L 19.898438 15.101562 L 20.324219 12.953125 Z M 21.609375 11.414062 L 18.882812 11.414062 C 18.738281 11.414062 18.648438 11.484375 18.621094 11.628906 L 17.355469 18.027344 C 17.339844 18.109375 17.359375 18.179688 17.414062 18.246094 C 17.46875 18.308594 17.535156 18.339844 17.621094 18.339844 L 19.035156 18.339844 C 19.183594 18.339844 19.273438 18.269531 19.300781 18.128906 L 19.59375 16.640625 L 20.585938 16.640625 C 21.148438 16.640625 21.621094 16.578125 21.992188 16.460938 C 22.371094 16.339844 22.722656 16.132812 23.035156 15.847656 C 23.289062 15.613281 23.5 15.351562 23.660156 15.070312 C 23.820312 14.789062 23.9375 14.472656 24.003906 14.136719 C 24.171875 13.296875 24.035156 12.625 23.605469 12.140625 C 23.175781 11.660156 22.503906 11.414062 21.609375 11.414062 M 19.574219 15.367188 L 20.433594 15.367188 C 21.003906 15.367188 21.429688 15.261719 21.710938 15.046875 C 21.988281 14.835938 22.179688 14.484375 22.277344 13.988281 C 22.371094 13.511719 22.328125 13.175781 22.148438 12.980469 C 21.96875 12.785156 21.609375 12.6875 21.074219 12.6875 L 20.101562 12.6875 L 19.574219 15.367188 M 21.609375 11.679688 C 22.429688 11.679688 23.027344 11.890625 23.402344 12.3125 C 23.777344 12.738281 23.890625 13.328125 23.742188 14.085938 C 23.679688 14.398438 23.574219 14.683594 23.429688 14.941406 C 23.28125 15.203125 23.089844 15.4375 22.851562 15.652344 C 22.570312 15.914062 22.253906 16.097656 21.910156 16.210938 C 21.5625 16.320312 21.121094 16.375 20.585938 16.375 L 19.371094 16.375 L 19.035156 18.078125 L 17.621094 18.078125 L 18.882812 11.679688 L 21.609375 11.679688 "/></g></svg>