<svg xmlns="http://www.w3.org/2000/svg" xmlns:xlink="http://www.w3.org/1999/xlink" width="40" zoomAndPan="magnify" viewBox="0 0 30 30.000001" height="40" preserveAspectRatio="xMidYMid meet" version="1.2"><defs><clipPath id="d8097efc42"><path d="M 4.839844 5.03125 L 25.160156 5.03125 L 25.160156 23.902344 L 4.839844 23.902344 Z M 4.839844 5.03125 "/></clipPath><clipPath id="d8275b17c1"><path d="M 4.839844 5.03125 L 25.160156 5.03125 L 25.160156 23.902344 L 4.839844 23.902344 Z M 4.839844 5.03125 "/></clipPath></defs><g id="5defd8d27f"><path style=" stroke:none;fill-rule:nonzero;fill:#53c1de;fill-opacity:1;" d="M 16.8125 14.453125 C 16.8125 13.484375 16.003906 12.699219 15 12.699219 C 14 12.699219 13.1875 13.484375 13.1875 14.453125 C 13.1875 15.417969 14 16.203125 15 16.203125 C 16.003906 16.203125 16.8125 15.417969 16.8125 14.453125 Z M 16.8125 14.453125 "/><g clip-rule="nonzero" clip-path="url(#d8097efc42)"><path style=" stroke:none;fill-rule:evenodd;fill:#53c1de;fill-opacity:1;" d="M 20.890625 11.203125 C 21.273438 9.699219 21.757812 6.914062 20.058594 5.96875 C 18.371094 5.027344 16.171875 6.832031 15.007812 7.914062 C 13.851562 6.839844 11.589844 5.046875 9.894531 5.996094 C 8.207031 6.9375 8.726562 9.679688 9.117188 11.1875 C 7.542969 11.621094 4.84375 12.550781 4.84375 14.453125 C 4.84375 16.347656 7.539062 17.359375 9.105469 17.789062 C 8.714844 19.308594 8.21875 22.011719 9.910156 22.953125 C 11.613281 23.898438 13.867188 22.148438 15.039062 21.054688 C 16.207031 22.140625 18.382812 23.90625 20.074219 22.960938 C 21.769531 22.011719 21.328125 19.265625 20.9375 17.746094 C 22.453125 17.3125 25.15625 16.324219 25.15625 14.453125 C 25.15625 12.570312 22.441406 11.632812 20.890625 11.203125 Z M 20.699219 16.9375 C 20.441406 16.152344 20.09375 15.320312 19.671875 14.457031 C 20.074219 13.613281 20.410156 12.789062 20.660156 12.007812 C 21.796875 12.328125 24.289062 13.054688 24.289062 14.453125 C 24.289062 15.863281 21.898438 16.597656 20.699219 16.9375 Z M 19.640625 22.234375 C 18.378906 22.941406 16.503906 21.253906 15.640625 20.453125 C 16.214844 19.847656 16.785156 19.148438 17.34375 18.367188 C 18.328125 18.28125 19.253906 18.144531 20.097656 17.957031 C 20.371094 19.03125 20.90625 21.527344 19.640625 22.234375 Z M 10.34375 22.226562 C 9.082031 21.523438 9.660156 19.113281 9.949219 17.996094 C 10.78125 18.171875 11.699219 18.300781 12.6875 18.378906 C 13.246094 19.140625 13.835938 19.84375 14.429688 20.457031 C 13.695312 21.140625 11.609375 22.929688 10.34375 22.226562 Z M 5.710938 14.453125 C 5.710938 13.035156 8.1875 12.3125 9.351562 11.996094 C 9.605469 12.792969 9.9375 13.628906 10.339844 14.472656 C 9.933594 15.328125 9.597656 16.175781 9.339844 16.984375 C 8.230469 16.675781 5.710938 15.867188 5.710938 14.453125 Z M 10.328125 6.71875 C 11.597656 6.011719 13.5625 7.734375 14.402344 8.511719 C 13.8125 9.121094 13.226562 9.816406 12.671875 10.578125 C 11.714844 10.660156 10.800781 10.800781 9.960938 10.984375 C 9.644531 9.765625 9.066406 7.425781 10.328125 6.71875 Z M 17.964844 11.488281 C 18.613281 11.566406 19.234375 11.671875 19.816406 11.800781 C 19.644531 12.339844 19.425781 12.90625 19.167969 13.488281 C 18.796875 12.804688 18.394531 12.136719 17.964844 11.488281 Z M 15.007812 9.109375 C 15.410156 9.527344 15.8125 9.996094 16.207031 10.5 C 15.40625 10.464844 14.605469 10.464844 13.804688 10.5 C 14.199219 10 14.601562 9.53125 15.007812 9.109375 Z M 10.839844 13.488281 C 10.585938 12.910156 10.371094 12.339844 10.195312 11.789062 C 10.773438 11.664062 11.390625 11.5625 12.035156 11.484375 C 11.605469 12.132812 11.207031 12.800781 10.839844 13.488281 Z M 12.054688 17.476562 C 11.390625 17.40625 10.761719 17.308594 10.183594 17.1875 C 10.363281 16.628906 10.582031 16.046875 10.839844 15.457031 C 11.210938 16.148438 11.617188 16.824219 12.054688 17.476562 Z M 15.035156 19.855469 C 14.621094 19.425781 14.210938 18.953125 13.8125 18.441406 C 14.617188 18.472656 15.421875 18.472656 16.226562 18.4375 C 15.832031 18.957031 15.429688 19.429688 15.035156 19.855469 Z M 19.175781 15.425781 C 19.449219 16.023438 19.675781 16.601562 19.859375 17.152344 C 19.269531 17.28125 18.632812 17.386719 17.964844 17.460938 C 18.394531 16.800781 18.800781 16.121094 19.175781 15.425781 Z M 16.859375 17.5625 C 15.628906 17.648438 14.390625 17.648438 13.160156 17.570312 C 12.460938 16.585938 11.839844 15.546875 11.300781 14.472656 C 11.835938 13.398438 12.453125 12.363281 13.148438 11.378906 C 14.382812 11.289062 15.621094 11.289062 16.851562 11.378906 C 17.542969 12.363281 18.160156 13.394531 18.707031 14.460938 C 18.167969 15.535156 17.546875 16.570312 16.859375 17.5625 Z M 19.625 6.695312 C 20.890625 7.398438 20.328125 9.902344 20.050781 10.992188 C 19.207031 10.804688 18.292969 10.664062 17.335938 10.578125 C 16.777344 9.8125 16.199219 9.113281 15.617188 8.507812 C 16.46875 7.71875 18.371094 5.996094 19.625 6.695312 Z M 19.625 6.695312 "/></g><path style=" stroke:none;fill-rule:nonzero;fill:#53c1de;fill-opacity:1;" d="M 16.8125 14.453125 C 16.8125 13.484375 16.003906 12.699219 15 12.699219 C 14 12.699219 13.1875 13.484375 13.1875 14.453125 C 13.1875 15.417969 14 16.203125 15 16.203125 C 16.003906 16.203125 16.8125 15.417969 16.8125 14.453125 Z M 16.8125 14.453125 "/><g clip-rule="nonzero" clip-path="url(#d8275b17c1)"><path style=" stroke:none;fill-rule:evenodd;fill:#53c1de;fill-opacity:1;" d="M 20.890625 11.203125 C 21.273438 9.699219 21.757812 6.914062 20.058594 5.96875 C 18.371094 5.027344 16.171875 6.832031 15.007812 7.914062 C 13.851562 6.839844 11.589844 5.046875 9.894531 5.996094 C 8.207031 6.9375 8.726562 9.679688 9.117188 11.1875 C 7.542969 11.621094 4.84375 12.550781 4.84375 14.453125 C 4.84375 16.347656 7.539062 17.359375 9.105469 17.789062 C 8.714844 19.308594 8.21875 22.011719 9.910156 22.953125 C 11.613281 23.898438 13.867188 22.148438 15.039062 21.054688 C 16.207031 22.140625 18.382812 23.90625 20.074219 22.960938 C 21.769531 22.011719 21.328125 19.265625 20.9375 17.746094 C 22.453125 17.3125 25.15625 16.324219 25.15625 14.453125 C 25.15625 12.570312 22.441406 11.632812 20.890625 11.203125 Z M 20.699219 16.9375 C 20.441406 16.152344 20.09375 15.320312 19.671875 14.457031 C 20.074219 13.613281 20.410156 12.789062 20.660156 12.007812 C 21.796875 12.328125 24.289062 13.054688 24.289062 14.453125 C 24.289062 15.863281 21.898438 16.597656 20.699219 16.9375 Z M 19.640625 22.234375 C 18.378906 22.941406 16.503906 21.253906 15.640625 20.453125 C 16.214844 19.847656 16.785156 19.148438 17.34375 18.367188 C 18.328125 18.28125 19.253906 18.144531 20.097656 17.957031 C 20.371094 19.03125 20.90625 21.527344 19.640625 22.234375 Z M 10.34375 22.226562 C 9.082031 21.523438 9.660156 19.113281 9.949219 17.996094 C 10.78125 18.171875 11.699219 18.300781 12.6875 18.378906 C 13.246094 19.140625 13.835938 19.84375 14.429688 20.457031 C 13.695312 21.140625 11.609375 22.929688 10.34375 22.226562 Z M 5.710938 14.453125 C 5.710938 13.035156 8.1875 12.3125 9.351562 11.996094 C 9.605469 12.792969 9.9375 13.628906 10.339844 14.472656 C 9.933594 15.328125 9.597656 16.175781 9.339844 16.984375 C 8.230469 16.675781 5.710938 15.867188 5.710938 14.453125 Z M 10.328125 6.71875 C 11.597656 6.011719 13.5625 7.734375 14.402344 8.511719 C 13.8125 9.121094 13.226562 9.816406 12.671875 10.578125 C 11.714844 10.660156 10.800781 10.800781 9.960938 10.984375 C 9.644531 9.765625 9.066406 7.425781 10.328125 6.71875 Z M 17.964844 11.488281 C 18.613281 11.566406 19.234375 11.671875 19.816406 11.800781 C 19.644531 12.339844 19.425781 12.90625 19.167969 13.488281 C 18.796875 12.804688 18.394531 12.136719 17.964844 11.488281 Z M 15.007812 9.109375 C 15.410156 9.527344 15.8125 9.996094 16.207031 10.5 C 15.40625 10.464844 14.605469 10.464844 13.804688 10.5 C 14.199219 10 14.601562 9.53125 15.007812 9.109375 Z M 10.839844 13.488281 C 10.585938 12.910156 10.371094 12.339844 10.195312 11.789062 C 10.773438 11.664062 11.390625 11.5625 12.035156 11.484375 C 11.605469 12.132812 11.207031 12.800781 10.839844 13.488281 Z M 12.054688 17.476562 C 11.390625 17.40625 10.761719 17.308594 10.183594 17.1875 C 10.363281 16.628906 10.582031 16.046875 10.839844 15.457031 C 11.210938 16.148438 11.617188 16.824219 12.054688 17.476562 Z M 15.035156 19.855469 C 14.621094 19.425781 14.210938 18.953125 13.8125 18.441406 C 14.617188 18.472656 15.421875 18.472656 16.226562 18.4375 C 15.832031 18.957031 15.429688 19.429688 15.035156 19.855469 Z M 19.175781 15.425781 C 19.449219 16.023438 19.675781 16.601562 19.859375 17.152344 C 19.269531 17.28125 18.632812 17.386719 17.964844 17.460938 C 18.394531 16.800781 18.800781 16.121094 19.175781 15.425781 Z M 16.859375 17.5625 C 15.628906 17.648438 14.390625 17.648438 13.160156 17.570312 C 12.460938 16.585938 11.839844 15.546875 11.300781 14.472656 C 11.835938 13.398438 12.453125 12.363281 13.148438 11.378906 C 14.382812 11.289062 15.621094 11.289062 16.851562 11.378906 C 17.542969 12.363281 18.160156 13.394531 18.707031 14.460938 C 18.167969 15.535156 17.546875 16.570312 16.859375 17.5625 Z M 19.625 6.695312 C 20.890625 7.398438 20.328125 9.902344 20.050781 10.992188 C 19.207031 10.804688 18.292969 10.664062 17.335938 10.578125 C 16.777344 9.8125 16.199219 9.113281 15.617188 8.507812 C 16.46875 7.71875 18.371094 5.996094 19.625 6.695312 Z M 19.625 6.695312 "/></g></g></svg>