<svg xmlns="http://www.w3.org/2000/svg" xmlns:xlink="http://www.w3.org/1999/xlink" width="40" zoomAndPan="magnify" viewBox="0 0 30 30.000001" height="40" preserveAspectRatio="xMidYMid meet" version="1.2"><defs><clipPath id="646491ed5e"><path d="M 3.800781 6.675781 L 26.300781 6.675781 L 26.300781 22.644531 L 3.800781 22.644531 Z M 3.800781 6.675781 "/></clipPath><clipPath id="618f5de040"><path d="M 4.214844 6.675781 L 26.714844 6.675781 L 26.714844 22.644531 L 4.214844 22.644531 Z M 4.214844 6.675781 "/></clipPath></defs><g id="2bef395411"><g clip-rule="nonzero" clip-path="url(#646491ed5e)"><path style=" stroke:none;fill-rule:nonzero;fill:#5ce1e6;fill-opacity:1;" d="M 15.394531 22.289062 C 12.367188 22.289062 10.910156 20.839844 9.847656 19.78125 C 9.453125 19.292969 8.96875 18.929688 8.390625 18.695312 C 7.753906 18.539062 6.894531 18.527344 5.90625 19.816406 C 5.746094 20.027344 5.539062 20.164062 5.28125 20.222656 C 5.023438 20.285156 4.777344 20.257812 4.539062 20.144531 C 4.300781 20.027344 4.128906 19.851562 4.015625 19.613281 C 3.90625 19.371094 3.882812 19.125 3.949219 18.867188 C 4.765625 15.65625 6.929688 13.957031 10.207031 13.957031 C 13.234375 13.957031 14.691406 15.410156 15.753906 16.46875 C 16.148438 16.957031 16.632812 17.316406 17.210938 17.554688 C 17.851562 17.710938 18.707031 17.722656 19.695312 16.433594 C 19.855469 16.222656 20.0625 16.085938 20.320312 16.023438 C 20.578125 15.964844 20.824219 15.992188 21.0625 16.105469 C 21.300781 16.222656 21.472656 16.398438 21.585938 16.636719 C 21.695312 16.875 21.71875 17.125 21.65625 17.378906 C 20.835938 20.59375 18.671875 22.289062 15.394531 22.289062 Z M 8.453125 16.445312 C 8.609375 16.46875 8.765625 16.5 8.917969 16.535156 C 9.910156 16.851562 10.742188 17.40625 11.414062 18.207031 C 12.375 19.164062 13.285156 20.070312 15.394531 20.070312 C 15.992188 20.082031 16.578125 19.992188 17.148438 19.800781 C 16.992188 19.78125 16.835938 19.75 16.683594 19.710938 C 15.691406 19.398438 14.859375 18.84375 14.191406 18.042969 C 13.226562 17.085938 12.316406 16.179688 10.207031 16.179688 C 9.609375 16.167969 9.023438 16.257812 8.453125 16.445312 Z M 19.835938 15.070312 C 16.808594 15.070312 15.351562 13.617188 14.289062 12.558594 C 13.898438 12.070312 13.414062 11.710938 12.832031 11.472656 C 12.195312 11.316406 11.335938 11.304688 10.351562 12.597656 C 10.191406 12.804688 9.984375 12.941406 9.726562 13.003906 C 9.46875 13.0625 9.222656 13.035156 8.984375 12.921875 C 8.746094 12.808594 8.570312 12.628906 8.460938 12.390625 C 8.347656 12.152344 8.328125 11.902344 8.390625 11.648438 C 9.210938 8.433594 11.375 6.738281 14.652344 6.738281 C 17.679688 6.738281 19.136719 8.1875 20.199219 9.246094 C 20.589844 9.734375 21.078125 10.097656 21.65625 10.332031 C 22.292969 10.488281 23.152344 10.5 24.136719 9.210938 C 24.296875 9 24.507812 8.863281 24.765625 8.804688 C 25.019531 8.742188 25.269531 8.769531 25.503906 8.882812 C 25.742188 9 25.917969 9.175781 26.027344 9.414062 C 26.140625 9.65625 26.164062 9.902344 26.097656 10.160156 C 25.28125 13.371094 23.113281 15.070312 19.835938 15.070312 Z M 12.898438 9.226562 C 13.054688 9.246094 13.207031 9.277344 13.363281 9.316406 C 14.355469 9.628906 15.1875 10.1875 15.855469 10.984375 C 16.777344 11.902344 17.726562 12.847656 19.835938 12.847656 C 20.4375 12.859375 21.023438 12.769531 21.589844 12.582031 C 21.4375 12.558594 21.28125 12.527344 21.128906 12.492188 C 20.132812 12.175781 19.300781 11.621094 18.632812 10.820312 C 17.671875 9.863281 16.761719 8.957031 14.652344 8.957031 C 14.050781 8.945312 13.46875 9.035156 12.898438 9.226562 Z M 12.898438 9.226562 "/></g><g clip-rule="nonzero" clip-path="url(#618f5de040)"><path style=" stroke:none;fill-rule:nonzero;fill:#5ce1e6;fill-opacity:1;" d="M 15.808594 22.289062 C 12.78125 22.289062 11.324219 20.839844 10.261719 19.78125 C 9.871094 19.292969 9.382812 18.929688 8.804688 18.695312 C 8.167969 18.539062 7.308594 18.527344 6.320312 19.816406 C 6.160156 20.027344 5.953125 20.164062 5.695312 20.222656 C 5.441406 20.285156 5.191406 20.257812 4.953125 20.144531 C 4.71875 20.027344 4.542969 19.851562 4.429688 19.613281 C 4.320312 19.371094 4.296875 19.125 4.363281 18.867188 C 5.179688 15.65625 7.347656 13.957031 10.625 13.957031 C 13.652344 13.957031 15.105469 15.410156 16.167969 16.46875 C 16.5625 16.957031 17.046875 17.316406 17.628906 17.554688 C 18.265625 17.710938 19.125 17.722656 20.109375 16.433594 C 20.269531 16.222656 20.476562 16.085938 20.734375 16.023438 C 20.992188 15.964844 21.238281 15.992188 21.476562 16.105469 C 21.714844 16.222656 21.886719 16.398438 22 16.636719 C 22.109375 16.875 22.132812 17.125 22.070312 17.378906 C 21.25 20.59375 19.085938 22.289062 15.808594 22.289062 Z M 8.867188 16.445312 C 9.023438 16.46875 9.179688 16.5 9.332031 16.535156 C 10.328125 16.851562 11.15625 17.40625 11.828125 18.207031 C 12.789062 19.164062 13.699219 20.070312 15.808594 20.070312 C 16.40625 20.082031 16.992188 19.992188 17.5625 19.800781 C 17.40625 19.78125 17.25 19.75 17.097656 19.710938 C 16.105469 19.398438 15.273438 18.84375 14.605469 18.042969 C 13.640625 17.085938 12.734375 16.179688 10.625 16.179688 C 10.023438 16.167969 9.4375 16.257812 8.867188 16.445312 Z M 20.25 15.070312 C 17.226562 15.070312 15.769531 13.617188 14.703125 12.558594 C 14.3125 12.070312 13.828125 11.710938 13.246094 11.472656 C 12.609375 11.316406 11.75 11.304688 10.765625 12.597656 C 10.605469 12.804688 10.398438 12.941406 10.140625 13.003906 C 9.882812 13.0625 9.636719 13.035156 9.398438 12.921875 C 9.160156 12.808594 8.988281 12.628906 8.875 12.390625 C 8.765625 12.152344 8.742188 11.902344 8.804688 11.648438 C 9.625 8.433594 11.789062 6.738281 15.066406 6.738281 C 18.09375 6.738281 19.550781 8.1875 20.613281 9.246094 C 21.003906 9.734375 21.492188 10.097656 22.070312 10.332031 C 22.710938 10.488281 23.566406 10.5 24.554688 9.210938 C 24.714844 9 24.921875 8.863281 25.179688 8.804688 C 25.4375 8.742188 25.683594 8.769531 25.921875 8.882812 C 26.15625 9 26.332031 9.175781 26.445312 9.414062 C 26.554688 9.65625 26.578125 9.902344 26.511719 10.160156 C 25.695312 13.371094 23.527344 15.070312 20.25 15.070312 Z M 13.3125 9.226562 C 13.46875 9.246094 13.625 9.277344 13.777344 9.316406 C 14.769531 9.628906 15.601562 10.1875 16.269531 10.984375 C 17.191406 11.902344 18.140625 12.847656 20.25 12.847656 C 20.851562 12.859375 21.4375 12.769531 22.007812 12.582031 C 21.851562 12.558594 21.695312 12.527344 21.542969 12.492188 C 20.546875 12.175781 19.71875 11.621094 19.046875 10.820312 C 18.085938 9.863281 17.175781 8.957031 15.066406 8.957031 C 14.46875 8.945312 13.882812 9.035156 13.3125 9.226562 Z M 13.3125 9.226562 "/></g></g></svg>